<?xml version="1.0" encoding="iso-8859-1"?>
<!-- Generator: Adobe Illustrator 19.0.0, SVG Export Plug-In . SVG Version: 6.00 Build 0)  -->
<svg version="1.1" id="Layer_1" xmlns="http://www.w3.org/2000/svg" xmlns:xlink="http://www.w3.org/1999/xlink" x="0px" y="0px"
	 viewBox="0 0 512.001 512.001" style="enable-background:new 0 0 512.001 512.001;" xml:space="preserve">
<g>
	<g>
		<path d="M471.043,378.18V28.318H321.691h-91.332H90.188l-0.21,241.092H0v214.274h121.188V460.64h349.58
			c22.736,0,41.233-18.497,41.233-41.232C512,396.763,493.652,378.331,471.043,378.18z M89.872,324.981v127.385H31.316V300.725
			h58.556V324.981z M261.674,59.634h28.701v41.56h-28.701V59.634z M121.478,59.634h108.881v72.876h91.332V59.634h118.036v318.541
			H278.69c-3.635,0-6.592-2.957-6.592-6.591s2.957-6.591,6.592-6.591h56.056c23.756,0,43.083-19.327,43.083-43.082
			c0-21.213-15.827-39.537-36.815-42.625l-48.765-7.17c-45.77-6.729-74.776-0.178-112.29,14.265l-58.701,25.154L121.478,59.634z
			 M470.767,429.323H121.188v-43.441h0.006l0.036-40.269l70.253-30.115c38.287-14.714,60.804-17.611,96.211-12.402l48.765,7.169
			c5.732,0.844,10.055,5.849,10.055,11.642c0,6.489-5.279,11.766-11.767,11.766H278.69c-20.902,0-37.908,17.005-37.908,37.907
			s17.006,37.907,37.908,37.907h192.077c5.469,0,9.918,4.449,9.918,9.918C480.684,424.875,476.236,429.323,470.767,429.323z"/>
	</g>
</g>
<g>
</g>
<g>
</g>
<g>
</g>
<g>
</g>
<g>
</g>
<g>
</g>
<g>
</g>
<g>
</g>
<g>
</g>
<g>
</g>
<g>
</g>
<g>
</g>
<g>
</g>
<g>
</g>
<g>
</g>
</svg>
