<svg width="19" height="24" viewBox="0 0 19 24" fill="none" xmlns="http://www.w3.org/2000/svg">
<path fill-rule="evenodd" clip-rule="evenodd" d="M2.40039 0.0302263C2.39412 0.0401254 2.40346 0.0490046 2.42115 0.0499045C2.43884 0.0508644 2.43134 0.0599835 2.40444 0.0702426C2.3776 0.0805016 2.31403 0.0854212 2.26317 0.0812215C2.21237 0.0770219 2.17079 0.0840413 2.17079 0.0968801C2.17079 0.109719 2.15906 0.120218 2.14475 0.120218C2.13044 0.120218 2.12657 0.106719 2.13609 0.0902207C2.14886 0.0680828 2.14438 0.0684427 2.11914 0.0914206C2.10022 0.108579 2.08339 0.132877 2.08173 0.145415C2.08007 0.157954 2.07731 0.174933 2.07559 0.183152C2.07393 0.191371 2.05593 0.184652 2.03566 0.168213C2.00661 0.144636 1.99881 0.144576 1.99881 0.167973C1.99881 0.188911 1.97308 0.192811 1.91043 0.181352C1.85054 0.170373 1.8272 0.173373 1.83813 0.190651C1.8471 0.20481 1.83611 0.216209 1.81363 0.216209C1.76934 0.216209 1.63421 0.301641 1.59103 0.356956C1.57617 0.375974 1.55142 0.383893 1.536 0.374594C1.51739 0.363375 1.5134 0.371414 1.52415 0.398772C1.53803 0.434048 1.529 0.437588 1.45941 0.424029C1.39485 0.41137 1.38392 0.41449 1.40505 0.439328C1.43558 0.475264 1.33589 0.562076 1.25813 0.567176C1.17275 0.572815 1.16348 0.576175 1.16348 0.601613C1.16348 0.615591 1.17454 0.620331 1.18805 0.612172C1.20156 0.604012 1.21262 0.607612 1.21262 0.620211C1.21262 0.654767 1.14346 0.673486 1.13265 0.641809C1.12743 0.62657 1.10261 0.648168 1.07743 0.689864C1.05225 0.7315 1.02258 0.760118 1.01158 0.753458C1.00053 0.746799 0.9915 0.757538 0.9915 0.777336C0.9915 0.797134 0.978724 0.821012 0.963123 0.830431C0.944451 0.84171 0.94095 0.83607 0.952988 0.813873C0.963 0.795334 0.948382 0.807153 0.920497 0.84015C0.89255 0.873147 0.869517 0.911963 0.86921 0.926482C0.868903 0.940941 0.843781 0.964518 0.813378 0.978857C0.782974 0.993196 0.770874 1.00561 0.786536 1.00651C0.803489 1.00747 0.809262 1.02937 0.800786 1.06087C0.787335 1.11114 0.785861 1.11144 0.767987 1.06687C0.750236 1.02253 0.749192 1.02271 0.747534 1.07119C0.746612 1.09927 0.728739 1.1361 0.707855 1.15302C0.686972 1.16994 0.676039 1.19946 0.683532 1.21865C0.692684 1.24187 0.685436 1.24901 0.661789 1.24019C0.636913 1.23083 0.629052 1.24079 0.635501 1.27349C0.64066 1.29965 0.631201 1.3201 0.61388 1.3201C0.56849 1.3201 0.470216 1.45803 0.501971 1.47717C0.518862 1.48737 0.513641 1.50825 0.487045 1.53698C0.464565 1.56122 0.453448 1.59254 0.462292 1.60658C0.471198 1.62062 0.464012 1.63226 0.446323 1.63244C0.42028 1.63274 0.420403 1.6367 0.446937 1.65307C0.472673 1.66903 0.470216 1.67695 0.435328 1.69003C0.397492 1.70419 0.396264 1.71007 0.427098 1.72981C0.458361 1.74978 0.457624 1.7562 0.421754 1.7769C0.39694 1.79118 0.384287 1.82124 0.390306 1.85165C0.395773 1.87967 0.3935 1.89587 0.385147 1.88771C0.376794 1.87961 0.348847 1.89671 0.32305 1.92581C0.281099 1.97302 0.280178 1.98154 0.314451 2.00596C0.355787 2.03554 0.368747 2.12457 0.328148 2.10003C0.314635 2.09187 0.303579 2.10201 0.303579 2.12259C0.303579 2.14317 0.301798 2.16813 0.299587 2.17802C0.297437 2.18792 0.287732 2.23028 0.278089 2.27216C0.263348 2.33581 0.266849 2.34583 0.299648 2.33353C0.334228 2.32057 0.334597 2.32333 0.302781 2.35693C0.282942 2.37787 0.25567 2.3886 0.242158 2.38087C0.228645 2.37313 0.230119 2.38236 0.245413 2.40138C0.260953 2.42076 0.266542 2.46768 0.258127 2.50799C0.22582 2.66284 0.240377 21.4856 0.272869 21.4962C0.289759 21.5017 0.303579 21.5167 0.303579 21.5296C0.303579 21.5425 0.289759 21.5449 0.272869 21.535C0.249344 21.5212 0.248668 21.5251 0.269859 21.5516C0.285644 21.5713 0.289575 21.6068 0.279072 21.6342C0.268937 21.6606 0.271886 21.7032 0.285644 21.729C0.303272 21.7621 0.302412 21.7785 0.282757 21.785C0.263778 21.7911 0.262365 21.8078 0.278335 21.837C0.291295 21.8606 0.293936 21.8877 0.284293 21.8973C0.27465 21.9069 0.288838 21.911 0.315863 21.9064C0.349461 21.9008 0.362298 21.9096 0.356402 21.9342C0.337484 22.0132 0.338774 22.1021 0.35892 22.1021C0.37059 22.1021 0.373845 22.1122 0.366045 22.1245C0.358306 22.1368 0.363342 22.1537 0.377285 22.1621C0.391228 22.1705 0.396264 22.1875 0.388525 22.1998C0.380725 22.2121 0.391596 22.2221 0.412664 22.2221C0.440058 22.2221 0.450991 22.2461 0.450991 22.3061C0.450991 22.3523 0.460757 22.3901 0.472672 22.3901C0.48465 22.3901 0.499698 22.4171 0.506147 22.4501C0.512597 22.4831 0.508358 22.5101 0.49675 22.5101C0.48508 22.5101 0.475559 22.5197 0.475559 22.5315C0.475559 22.5432 0.494907 22.5513 0.518554 22.5495C0.548344 22.5471 0.562348 22.5645 0.564191 22.6061C0.569043 22.7148 0.573588 22.7291 0.598402 22.7141C0.611915 22.7059 0.622971 22.7164 0.622971 22.7374C0.622971 22.7584 0.639862 22.7819 0.660499 22.7897C0.681137 22.7974 0.709882 22.8254 0.724378 22.8518C0.740654 22.8815 0.741269 22.8942 0.725975 22.885C0.711172 22.876 0.706443 22.8893 0.71412 22.918C0.727572 22.9683 0.770382 22.985 0.770382 22.9401C0.770382 22.9258 0.784202 22.9186 0.801093 22.9241C0.817984 22.9296 0.830514 22.9639 0.828917 23.0003C0.827136 23.0411 0.849862 23.0909 0.88825 23.1303C0.922401 23.1654 0.94224 23.1778 0.93229 23.158C0.91804 23.1297 0.921111 23.1302 0.946662 23.1601C0.964597 23.181 1.00962 23.2055 1.04678 23.2145C1.09088 23.2252 1.11434 23.2468 1.11434 23.2765C1.11434 23.3602 1.14137 23.4019 1.17693 23.3731C1.21299 23.3439 1.2749 23.4241 1.24247 23.4581C1.23282 23.4682 1.2491 23.4642 1.27871 23.4492C1.33546 23.4204 1.3768 23.4481 1.34707 23.4951C1.32017 23.5376 1.38908 23.5932 1.45972 23.5859C1.50775 23.581 1.54939 23.6009 1.60762 23.6565C1.65227 23.6991 1.69963 23.734 1.71283 23.734C1.7261 23.734 1.757 23.7517 1.78144 23.7733C1.81799 23.8056 1.83267 23.8072 1.86381 23.7819C1.89599 23.7558 1.89912 23.7577 1.88463 23.7945C1.87339 23.8233 1.87683 23.8323 1.89483 23.8214C1.90981 23.8123 1.93106 23.82 1.942 23.8383C1.96761 23.8812 2.07252 23.9143 2.07252 23.8796C2.07252 23.8228 2.21151 23.8528 2.24094 23.9159C2.26575 23.9691 2.28178 23.9762 2.35518 23.9665C2.40217 23.9604 2.43447 23.9649 2.4271 23.9766C2.40653 24.0091 2.47587 24.0021 2.51291 23.968C2.53895 23.944 2.54774 23.944 2.5567 23.968C2.57126 24.0067 2.66745 24.0067 2.70946 23.968C2.73544 23.944 2.74428 23.944 2.75325 23.9679C2.76867 24.009 16.4943 24.0119 16.4943 23.9709C16.4943 23.9515 16.5036 23.9516 16.5279 23.9714C16.5641 24.0007 16.633 23.9974 16.6885 23.9636C16.7121 23.9492 16.7175 23.9513 16.7054 23.9703C16.6935 23.9892 16.7061 23.9948 16.7446 23.9878C16.7758 23.9822 16.8104 23.9767 16.8213 23.9758C16.8322 23.9748 16.8358 23.9655 16.8292 23.9551C16.8178 23.9371 16.8359 23.9332 16.9734 23.9241C17.0071 23.9218 17.0348 23.9099 17.0348 23.8975C17.0348 23.8852 17.0458 23.8818 17.0594 23.89C17.0729 23.8981 17.0839 23.893 17.0839 23.8786C17.0839 23.86 17.0979 23.8596 17.1315 23.8771C17.1953 23.9106 17.2234 23.9086 17.1871 23.8732C17.1466 23.8336 17.1502 23.806 17.196 23.806C17.217 23.806 17.2274 23.8168 17.2191 23.83C17.2107 23.8432 17.2156 23.854 17.2299 23.854C17.2442 23.854 17.2559 23.8414 17.2559 23.826C17.2559 23.8106 17.2631 23.805 17.2719 23.8136C17.2807 23.8222 17.303 23.8105 17.3214 23.7876C17.3431 23.7607 17.3526 23.7576 17.3484 23.779C17.3448 23.7971 17.3557 23.817 17.3726 23.823C17.3923 23.83 17.398 23.8203 17.3884 23.796C17.38 23.7747 17.3861 23.758 17.4022 23.758C17.4179 23.758 17.424 23.7472 17.4156 23.734C17.3926 23.6976 17.4196 23.7053 17.4628 23.7476C17.5056 23.7893 17.561 23.7709 17.5416 23.7213C17.525 23.679 17.5838 23.6335 17.6317 23.6514C17.6551 23.6602 17.6799 23.6472 17.6961 23.6178C17.7105 23.5914 17.7611 23.5574 17.8085 23.5421C17.8559 23.5268 17.8947 23.5063 17.8947 23.4966C17.8947 23.4869 17.9334 23.4609 17.9807 23.4389C18.028 23.4168 18.0667 23.3878 18.0667 23.3744C18.0667 23.361 18.0915 23.3492 18.1219 23.3481C18.1524 23.3471 18.1634 23.3408 18.1465 23.3341C18.1296 23.3275 18.1158 23.3056 18.1158 23.2855C18.1158 23.2623 18.1298 23.2542 18.154 23.2632C18.1749 23.2711 18.1861 23.268 18.1788 23.2565C18.1715 23.2449 18.184 23.2207 18.2068 23.2027C18.2295 23.1847 18.2404 23.1825 18.231 23.1978C18.2194 23.2168 18.2312 23.2212 18.2687 23.2116C18.2988 23.2039 18.3098 23.1932 18.2933 23.1879C18.2409 23.1708 18.2589 23.1134 18.3124 23.1271C18.3522 23.1372 18.3615 23.1278 18.3615 23.0776C18.3615 23.0322 18.3714 23.0193 18.3984 23.0294C18.4383 23.0444 18.5164 22.9013 18.4906 22.8606C18.483 22.8485 18.4897 22.8465 18.5055 22.856C18.5213 22.8656 18.5268 22.8851 18.5178 22.8994C18.5076 22.9155 18.5128 22.9186 18.5313 22.9073C18.5478 22.8974 18.5555 22.8741 18.5482 22.8557C18.5403 22.8356 18.5507 22.8221 18.5741 22.8221C18.6046 22.8221 18.607 22.8148 18.585 22.7889C18.5633 22.7633 18.5654 22.7525 18.5945 22.7416C18.6152 22.7338 18.6308 22.719 18.629 22.7088C18.6137 22.6173 18.6368 22.5578 18.693 22.544C18.7267 22.5357 18.7486 22.52 18.7416 22.509C18.7347 22.4981 18.7436 22.4803 18.7614 22.4696C18.7793 22.4589 18.7933 22.4123 18.7927 22.3661C18.7918 22.3086 18.8017 22.2842 18.824 22.2887C18.8419 22.2923 18.8495 22.2842 18.8409 22.2707C18.8324 22.2572 18.8398 22.246 18.8575 22.2458C18.8811 22.2455 18.8798 22.2389 18.8529 22.2213C18.8202 22.1999 18.8203 22.1939 18.8535 22.1677C18.8964 22.1339 18.9036 22.0507 18.8659 22.0245C18.8496 22.0132 18.8515 22.0068 18.8713 22.0065C18.8882 22.0063 18.902 21.9893 18.902 21.9687C18.902 21.9481 18.9118 21.9372 18.9238 21.9445C18.9506 21.9607 18.9772 21.87 18.9592 21.824C18.9519 21.8055 18.9362 21.7964 18.9243 21.8036C18.912 21.811 18.9121 21.7929 18.9245 21.7614C18.9366 21.731 18.9574 21.7085 18.9709 21.7113C18.9995 21.7175 18.9798 21.6275 18.9482 21.6084C18.9094 21.5851 18.9231 21.5024 18.9632 21.5174C18.9957 21.5296 18.9999 20.6821 18.9999 14.1374C18.9999 9.16815 18.9917 6.74359 18.975 6.74359C18.9613 6.74359 18.9552 6.7166 18.9613 6.6836C18.9674 6.6506 18.961 6.62361 18.9469 6.62361C18.9328 6.62361 18.9276 6.60777 18.9352 6.58839C18.9428 6.56901 18.9389 6.54705 18.9266 6.53961C18.9142 6.53217 18.9104 6.51028 18.9179 6.49096C18.9255 6.4717 18.9427 6.46252 18.9562 6.47068C18.971 6.47962 18.9703 6.46666 18.9545 6.43768C18.9401 6.41141 18.9362 6.38141 18.9459 6.37091C18.9555 6.36047 18.9496 6.35969 18.9327 6.36917C18.9151 6.37913 18.9006 6.37307 18.8986 6.35507C18.8968 6.33779 18.8923 6.29124 18.8887 6.25164C18.885 6.21204 18.8763 6.15805 18.8693 6.13165C18.8623 6.10525 18.8558 6.0695 18.8548 6.05222C18.8537 6.03494 18.844 6.02618 18.8331 6.03272C18.8223 6.03926 18.8156 6.01292 18.8184 5.97417C18.823 5.90985 18.8043 5.89131 18.7454 5.90181C18.7336 5.90391 18.7308 5.88819 18.7392 5.8669C18.7476 5.8456 18.7435 5.80828 18.7301 5.78386C18.7128 5.75237 18.7147 5.73611 18.7363 5.72753C18.7539 5.72063 18.7479 5.71469 18.7224 5.71361C18.698 5.71253 18.6848 5.70089 18.6932 5.68769C18.7015 5.67449 18.6967 5.6637 18.6824 5.6637C18.668 5.6637 18.6563 5.6421 18.6563 5.6157C18.6563 5.5893 18.6425 5.56752 18.6256 5.56734C18.6026 5.56704 18.6031 5.56189 18.6277 5.54671C18.654 5.53033 18.6529 5.52355 18.6216 5.51179C18.6001 5.50381 18.5826 5.48065 18.5826 5.46049C18.5826 5.44028 18.563 5.42372 18.5389 5.42372C18.4794 5.42372 18.3502 5.22958 18.3923 5.20348C18.4154 5.1892 18.4138 5.18368 18.3861 5.18134C18.3658 5.1796 18.3337 5.17672 18.3148 5.17498C18.2958 5.17318 18.2773 5.15188 18.2736 5.12753C18.2653 5.07293 18.2455 5.05247 18.2003 5.05205C18.1812 5.05187 18.1626 5.04119 18.159 5.02824C18.1555 5.01528 18.1223 4.97634 18.0851 4.94166C18.0479 4.90693 18.0175 4.86625 18.0175 4.85119C18.0175 4.82569 17.9644 4.81202 17.907 4.82263C17.8935 4.82515 17.8962 4.81346 17.9131 4.79672C17.93 4.77992 17.9436 4.75484 17.9435 4.74098C17.9433 4.72712 17.9323 4.73198 17.9193 4.75178C17.9034 4.77578 17.8953 4.77776 17.8951 4.75778C17.8949 4.74128 17.8779 4.72778 17.8573 4.72778C17.8293 4.72778 17.8241 4.71207 17.8364 4.66419C17.8479 4.61949 17.8444 4.6057 17.8245 4.61763C17.8091 4.62699 17.7964 4.62321 17.7964 4.60923C17.7964 4.59526 17.7881 4.58506 17.778 4.58662C17.7091 4.59724 17.6763 4.58044 17.6905 4.5418C17.699 4.5187 17.6969 4.50778 17.6859 4.51762C17.6749 4.5274 17.651 4.52338 17.6328 4.50868C17.6147 4.49399 17.5999 4.48943 17.5999 4.49861C17.5999 4.50772 17.5833 4.49903 17.563 4.47923C17.5427 4.45943 17.5262 4.43657 17.5262 4.42841C17.5262 4.40339 17.3941 4.28347 17.3735 4.28983C17.3629 4.29312 17.3542 4.27963 17.3542 4.25983C17.3542 4.23919 17.332 4.22383 17.3022 4.22383C17.2623 4.22383 17.2531 4.21267 17.263 4.17584C17.2701 4.1495 17.2659 4.12184 17.2536 4.11446C17.2414 4.10708 17.2313 4.11308 17.2313 4.12784C17.2313 4.17428 17.1828 4.12772 17.1484 4.04823C17.1122 3.96466 16.989 3.84119 17.0171 3.91666C17.0276 3.94492 17.022 3.95356 16.9986 3.9448C16.9801 3.93784 16.9586 3.91612 16.9509 3.8965C16.9431 3.87688 16.9257 3.86752 16.9121 3.87574C16.8985 3.88396 16.8874 3.86962 16.8874 3.84383C16.8874 3.79799 16.8256 3.75456 16.7768 3.76607C16.7633 3.76925 16.7602 3.76415 16.7698 3.75474C16.7983 3.7269 16.7395 3.64291 16.7015 3.65719C16.6825 3.66432 16.6693 3.66246 16.6722 3.65305C16.6855 3.61027 16.5783 3.47792 16.5385 3.48812C16.5154 3.494 16.4767 3.48296 16.4525 3.46358C16.4111 3.43053 16.4119 3.42909 16.465 3.44025C16.5135 3.45044 16.5172 3.44684 16.4905 3.41553C16.4585 3.37773 16.3487 3.32518 16.3162 3.33202C16.306 3.33418 16.2977 3.31906 16.2977 3.29848C16.2977 3.27556 16.3096 3.26764 16.3284 3.27802C16.35 3.2899 16.3517 3.28696 16.334 3.26812C16.3203 3.25336 16.2821 3.23728 16.2494 3.23242C16.2166 3.22751 16.1849 3.20927 16.1789 3.19181C16.173 3.17435 16.1393 3.12845 16.1039 3.08976C16.0686 3.05106 16.0398 3.00799 16.0398 2.99407C16.0398 2.98015 16.013 2.96473 15.9802 2.95987C15.9049 2.94865 15.8513 2.906 15.8718 2.87354C15.881 2.85902 15.8758 2.85572 15.8593 2.86568C15.8437 2.8751 15.8309 2.87138 15.8309 2.8574C15.8309 2.84342 15.8143 2.83196 15.7941 2.83196C15.7707 2.83196 15.7572 2.80898 15.7572 2.76939C15.7572 2.72175 15.7478 2.71035 15.7176 2.72169C15.6888 2.73249 15.6821 2.72625 15.6929 2.69878C15.704 2.67058 15.6944 2.6629 15.6551 2.66848C15.621 2.67334 15.6004 2.66188 15.5964 2.63566C15.5921 2.608 15.6029 2.59912 15.6306 2.60746C15.662 2.61688 15.661 2.61322 15.6262 2.59151C15.6015 2.57603 15.5613 2.56853 15.537 2.57471C15.4845 2.58809 15.4205 2.52263 15.4091 2.44398C15.4046 2.4132 15.3768 2.37763 15.3472 2.36497C15.3176 2.35225 15.2876 2.32009 15.2805 2.29339C15.2702 2.25494 15.2612 2.25098 15.2372 2.27444C15.2019 2.30893 15.1581 2.31439 15.1788 2.28169C15.1866 2.2694 15.1815 2.25242 15.1676 2.24402C15.1536 2.23562 15.1476 2.2202 15.1541 2.20988C15.1607 2.1995 15.1388 2.17892 15.1054 2.16405C15.072 2.14923 15.0447 2.12541 15.0447 2.11113C15.0447 2.09685 15.0363 2.09025 15.0261 2.09649C14.9899 2.11833 14.9153 2.04352 14.9317 2.00182C14.945 1.9678 14.9415 1.96612 14.9102 1.99156C14.8896 2.00824 14.8715 2.0125 14.8699 2.00098C14.8683 1.98946 14.8656 1.96384 14.8638 1.94405C14.8619 1.92425 14.8459 1.91099 14.8279 1.91465C14.81 1.91825 14.8024 1.91015 14.811 1.89665C14.8195 1.88309 14.8142 1.87205 14.799 1.87205C14.7839 1.87205 14.7784 1.86125 14.7868 1.84806C14.7951 1.83486 14.7917 1.82406 14.7791 1.82406C14.7666 1.82406 14.6921 1.75956 14.6134 1.68073C14.494 1.56092 14.4606 1.53986 14.4101 1.55222C14.3545 1.56584 14.351 1.56188 14.3665 1.50165C14.3816 1.44273 14.3781 1.43787 14.3302 1.45275C14.2942 1.46391 14.2824 1.46061 14.2938 1.44267C14.303 1.42803 14.2989 1.4161 14.2846 1.4161C14.2703 1.4161 14.2585 1.40158 14.2585 1.38376C14.2585 1.366 14.2364 1.32652 14.2094 1.29611C14.1824 1.26569 14.1603 1.24913 14.1603 1.25939C14.1603 1.26959 14.1415 1.26317 14.1187 1.24505C14.0829 1.21667 14.08 1.21709 14.0982 1.24811C14.1097 1.26791 14.0872 1.25171 14.0483 1.21212C14.0093 1.17252 13.9803 1.12662 13.9839 1.11012C13.9875 1.09363 13.9755 1.08013 13.9573 1.08013C13.939 1.08013 13.8865 1.02883 13.8406 0.966138C13.7782 0.880946 13.7549 0.862768 13.7481 0.894145C13.7371 0.94514 13.7251 0.94646 13.6792 0.901704C13.6572 0.880106 13.6532 0.861628 13.6687 0.852269C13.7145 0.824612 13.694 0.795454 13.6075 0.764917C13.5602 0.748179 13.5215 0.725261 13.5215 0.713922C13.5215 0.702583 13.5343 0.701023 13.5499 0.710442C13.567 0.720821 13.5715 0.717042 13.5613 0.700903C13.5521 0.686265 13.5265 0.681045 13.5044 0.689264C13.4752 0.700243 13.4698 0.695564 13.4846 0.672166C13.4996 0.648528 13.4939 0.644149 13.4634 0.655607C13.4317 0.667486 13.4184 0.654828 13.4077 0.602572C13.3969 0.549777 13.3829 0.536699 13.347 0.545878C13.3154 0.553917 13.3004 0.545278 13.3004 0.519C13.3004 0.497642 13.2893 0.480184 13.2758 0.480184C13.2623 0.480184 13.2512 0.490983 13.2512 0.504182C13.2512 0.51738 13.2395 0.528179 13.2252 0.528179C13.2109 0.528179 13.2054 0.51834 13.213 0.506341C13.2404 0.463026 13.1993 0.404591 13.1624 0.434528C13.1367 0.455346 13.1284 0.455106 13.1284 0.433688C13.1284 0.41809 13.1166 0.41245 13.1022 0.42115C13.074 0.438188 13.0028 0.359955 13.0207 0.331638C13.0266 0.322279 13.0063 0.301521 12.9755 0.285502C12.9227 0.257965 12.9216 0.258925 12.956 0.302301C12.9914 0.346877 12.9909 0.346997 12.9406 0.30518C12.9121 0.281543 12.8792 0.265344 12.8673 0.269184C12.8556 0.273023 12.8423 0.265404 12.8381 0.252205C12.8303 0.228148 12.7385 0.170673 12.7054 0.169053C12.6956 0.168573 12.695 0.187112 12.704 0.210209C12.7195 0.250226 12.7182 0.250226 12.6769 0.210209C12.653 0.187112 12.6226 0.168213 12.6093 0.168213C12.5959 0.168213 12.5913 0.158194 12.5991 0.145955C12.6229 0.108339 12.5148 0.0898607 12.4722 0.124237C12.441 0.149375 12.4303 0.149795 12.4222 0.126217C12.4164 0.109719 12.3863 0.0962201 12.355 0.0962201C12.3238 0.0962201 12.291 0.0776219 12.2821 0.054884C12.2682 0.0194874 12.2626 0.0186474 12.243 0.0488846C12.2261 0.0749221 12.22 0.076002 12.2197 0.0527842C12.2195 0.0355059 12.2092 0.0275266 12.1969 0.0349659C12.1845 0.0424052 12.1693 0.0349659 12.1631 0.0183475C12.1541 -0.00577027 12.1453 -0.00577026 12.1192 0.0182275C12.0807 0.0536841 12.038 0.0584237 12.0593 0.0248269C12.0689 0.00964828 10.4281 0.00106909 7.39107 0.000529142C4.6287 -1.08069e-05 2.71363 0.00850839 2.72168 0.0212272C2.72917 0.0330461 2.71333 0.0484046 2.68649 0.055244C2.65578 0.0631033 2.6376 0.0558439 2.6376 0.0358058C2.6376 0.00130907 2.42194 -0.00373046 2.40039 0.0302263ZM2.65707 1.42839C2.68802 1.42593 2.72365 1.44111 2.73618 1.46205C2.75559 1.49451 2.75903 1.49301 2.7597 1.45209C2.76038 1.40668 11.3287 1.38226 11.4516 1.42731C11.4758 1.43619 11.4823 1.86149 11.4823 3.44313C11.4823 5.30967 11.4852 5.44772 11.5238 5.44772C11.56 5.44772 11.5592 5.45216 11.5177 5.48209C11.4795 5.50963 11.4761 5.52253 11.5007 5.54689C11.5398 5.58552 11.5405 5.69327 11.5019 5.73089C11.4737 5.75849 11.4997 5.77217 11.5621 5.76251C11.5887 5.75843 11.5848 5.80228 11.557 5.81902C11.5441 5.82682 11.5398 5.84902 11.5473 5.86834C11.555 5.88759 11.5721 5.89677 11.5856 5.88861C11.5991 5.88052 11.5968 5.89809 11.5806 5.92767C11.5638 5.95827 11.562 5.97489 11.5764 5.96619C11.5903 5.95779 11.6081 5.96103 11.616 5.97345C11.6239 5.98587 11.6108 6.00008 11.587 6.00506C11.554 6.01196 11.5635 6.02432 11.6271 6.05732C11.6758 6.08252 11.6994 6.10723 11.6838 6.11665C11.6481 6.13819 11.6611 6.21402 11.7051 6.2412C11.7245 6.25314 11.7292 6.26376 11.7157 6.26478C11.7022 6.26586 11.7167 6.27672 11.748 6.28896C11.7793 6.3012 11.7983 6.32159 11.7903 6.33425C11.7823 6.34691 11.8064 6.38813 11.8439 6.4258C11.8815 6.46348 11.8957 6.47272 11.8754 6.44644C11.8425 6.40379 11.8473 6.40451 11.9193 6.45334C11.9786 6.4936 11.9961 6.5203 11.9852 6.55389C11.9752 6.58461 11.9821 6.59961 12.0062 6.59961C12.026 6.59961 12.0486 6.61605 12.0565 6.63614C12.0659 6.6602 12.0921 6.66896 12.1328 6.66176C12.1755 6.6542 12.1948 6.66152 12.1948 6.68516C12.1948 6.70412 12.183 6.7196 12.1687 6.7196C12.1544 6.7196 12.1509 6.73256 12.161 6.74839C12.1752 6.77083 12.1814 6.77083 12.1891 6.74839C12.2058 6.69926 12.2378 6.7166 12.2552 6.78433C12.2682 6.83479 12.2767 6.84139 12.2939 6.81433C12.3124 6.78505 12.3227 6.78691 12.3598 6.82627C12.4022 6.87144 12.4021 6.87186 12.3559 6.83826C12.3247 6.81559 12.3146 6.81403 12.3268 6.83377C12.337 6.85038 12.3897 6.88488 12.444 6.9105C12.5032 6.93846 12.5318 6.94428 12.5155 6.92508C12.4938 6.89958 12.5034 6.89376 12.5626 6.8961C12.6035 6.89772 12.637 6.91236 12.637 6.92856C12.637 6.94506 12.6534 6.95189 12.6742 6.94415C12.7022 6.93366 12.707 6.94122 12.694 6.97487C12.6774 7.01747 12.6787 7.01759 12.72 6.97757C12.7717 6.92754 12.7944 6.92352 12.7771 6.96755C12.7702 6.98519 12.7801 6.99959 12.799 6.99959C12.818 6.99959 12.8336 6.98891 12.8336 6.97589C12.8336 6.96287 12.8546 6.97595 12.8803 7.00487C12.913 7.04171 12.9303 7.04825 12.9377 7.02653C12.9463 7.00163 12.9564 7.00205 12.9893 7.02851C13.0239 7.0564 13.0302 7.0564 13.0305 7.02851C13.0308 7.00091 13.0343 7.00079 13.052 7.02815C13.0668 7.05089 13.0782 7.05268 13.0899 7.03409C13.1016 7.01567 13.121 7.01489 13.1528 7.03151C13.1826 7.04705 13.9632 7.05556 15.3627 7.05556H17.5264L17.5201 14.2526C17.5167 18.211 17.5194 21.4463 17.5262 21.4422C17.5329 21.4381 17.5384 21.4702 17.5384 21.5134C17.5384 21.5703 17.5291 21.5886 17.5047 21.5794C17.4813 21.5707 17.4851 21.5879 17.5169 21.6353C17.5617 21.7022 17.5618 21.7034 17.517 21.6867C17.4797 21.6727 17.4735 21.6785 17.484 21.7178C17.4954 21.7603 17.4781 21.7758 17.4259 21.7704C17.4179 21.7695 17.4115 21.784 17.4115 21.8025C17.4115 21.821 17.42 21.831 17.4303 21.8247C17.4406 21.8185 17.456 21.8244 17.4645 21.8378C17.473 21.8512 17.4682 21.8622 17.4539 21.8622C17.4396 21.8622 17.4279 21.8838 17.4279 21.9102C17.4279 21.9366 17.4128 21.9582 17.3944 21.9582C17.372 21.9582 17.3649 21.9779 17.3727 22.0182C17.3797 22.0537 17.3731 22.0782 17.3565 22.0782C17.3412 22.0782 17.316 22.1051 17.3006 22.1381C17.2852 22.1711 17.2579 22.1981 17.2399 22.1981C17.1889 22.1981 17.1114 22.2737 17.1256 22.3097C17.137 22.3387 17.0737 22.3565 17.0022 22.3443C16.9911 22.3425 16.9895 22.3643 16.9988 22.3928C17.0136 22.4383 17.008 22.4433 16.9538 22.4332C16.9089 22.4248 16.8954 22.4305 16.9045 22.4538C16.9155 22.4819 16.8867 22.4925 16.8226 22.4841C16.8139 22.4829 16.7973 22.4964 16.7857 22.5141C16.7681 22.5407 16.7608 22.5405 16.7429 22.5132C16.7252 22.4864 16.7167 22.4881 16.6971 22.5223C16.6809 22.5506 16.6675 22.5555 16.6559 22.5372C16.6343 22.503 16.5926 22.5019 16.5926 22.5355C16.5926 22.5495 16.6064 22.5533 16.6233 22.544C16.644 22.5325 16.6461 22.5351 16.6294 22.5519C16.583 22.5988 16.4929 22.6136 16.5093 22.5717C16.5174 22.551 16.5118 22.5341 16.4969 22.5341C16.4819 22.5341 16.4697 22.5422 16.4697 22.5521C16.4697 22.562 13.4155 22.5673 9.68264 22.5639C5.4421 22.56 2.87044 22.5662 2.82855 22.5804C2.78476 22.5954 2.7562 22.5948 2.74619 22.579C2.73777 22.5657 2.71499 22.5608 2.69558 22.5681C2.67617 22.5753 2.65461 22.5668 2.64761 22.549C2.63895 22.5269 2.60062 22.5193 2.52575 22.5247C2.46181 22.5294 2.41648 22.5225 2.41648 22.508C2.41648 22.4944 2.40542 22.49 2.39191 22.4981C2.3784 22.5063 2.36734 22.5009 2.36734 22.4861C2.36734 22.4714 2.35702 22.4655 2.34449 22.4731C2.3319 22.4807 2.31452 22.4757 2.30592 22.4621C2.29732 22.4485 2.27822 22.4446 2.2636 22.4534C2.24824 22.4627 2.24394 22.4585 2.2534 22.4435C2.26243 22.4292 2.25844 22.4105 2.2445 22.4021C2.23056 22.3937 2.22607 22.3759 2.23449 22.3625C2.24339 22.3485 2.22951 22.3416 2.20181 22.3461C2.14143 22.3562 2.07252 22.302 2.07252 22.2446C2.07252 22.1873 2.02369 22.1582 2.0224 22.2147C2.02166 22.2458 2.00981 22.2378 1.98045 22.1861C1.95797 22.1465 1.94206 22.1015 1.94525 22.086C1.94838 22.0705 1.92855 22.0509 1.90115 22.0423C1.84022 22.0234 1.80533 21.9637 1.79766 21.8649C1.79446 21.8238 1.78126 21.7902 1.76836 21.7902C1.75546 21.7902 1.75227 21.783 1.76117 21.7743C1.77008 21.7656 1.75515 21.7433 1.728 21.7247C1.68335 21.6942 1.68157 21.6298 1.72604 21.6567C1.73636 21.6629 1.74201 21.6442 1.73869 21.6151C1.73538 21.586 1.73169 21.5622 1.73052 21.5622C1.72088 21.5622 1.73095 2.24564 1.7406 2.23628C1.74748 2.22956 1.75331 2.23934 1.75349 2.258C1.7538 2.28601 1.7581 2.28565 1.77769 2.25602C1.79078 2.23622 1.80153 2.20382 1.80153 2.18402C1.80153 2.15205 1.79889 2.15205 1.77769 2.18402C1.76461 2.20382 1.75405 2.20922 1.75429 2.19602C1.75491 2.15805 1.81774 2.08713 1.83543 2.10441C1.84421 2.11299 1.8514 2.10741 1.8514 2.09205C1.8514 2.07663 1.83758 2.06386 1.82069 2.06368C1.79846 2.06338 1.79932 2.0575 1.82382 2.04238C1.84243 2.03086 1.85011 2.00938 1.84084 1.99474C1.8315 1.98004 1.83561 1.96804 1.84993 1.96804C1.86424 1.96804 1.87597 1.95539 1.87597 1.93991C1.87597 1.89095 1.95256 1.82664 1.99285 1.84176C2.01834 1.85129 2.02541 1.84668 2.01368 1.82814C2.00293 1.8111 2.01159 1.80006 2.03579 1.80006C2.059 1.80006 2.07381 1.78254 2.07123 1.75806C2.06122 1.66183 2.07135 1.64545 2.11121 1.69351C2.13247 1.71913 2.14285 1.72651 2.13419 1.70989C2.11514 1.67317 2.18523 1.59914 2.21944 1.61978C2.23295 1.62794 2.23823 1.62014 2.23135 1.6025C2.22337 1.58222 2.23872 1.5689 2.27294 1.56638C2.30279 1.56422 2.33638 1.5464 2.34756 1.52691C2.36015 1.50489 2.39117 1.49547 2.42907 1.50219C2.46783 1.50909 2.49031 1.50189 2.49055 1.48257C2.4908 1.46097 2.49749 1.46217 2.51346 1.48683C2.53103 1.51395 2.53975 1.50687 2.55314 1.45455C2.56266 1.41772 2.57722 1.39774 2.58557 1.41016C2.59392 1.42264 2.62611 1.43085 2.65707 1.42839ZM14.7237 1.81014C14.747 1.8375 14.7442 1.84302 14.7096 1.83804C14.686 1.83462 14.6623 1.81932 14.657 1.80396C14.6437 1.7649 14.6889 1.7691 14.7237 1.81014ZM13.0027 2.17802C12.9949 2.22584 13.0091 2.23502 13.0453 2.20568C13.0892 2.17011 13.2133 2.28685 13.1916 2.34331C13.1854 2.35963 13.1991 2.36599 13.2257 2.35921C13.2502 2.35297 13.2787 2.36125 13.2891 2.37763C13.3007 2.39592 13.2978 2.40132 13.2819 2.39166C13.2655 2.38177 13.2606 2.39388 13.2688 2.42448C13.2787 2.46132 13.2896 2.46672 13.3139 2.44698C13.3383 2.42718 13.3533 2.43438 13.3759 2.47644C13.3924 2.50697 13.421 2.54075 13.4396 2.55149C13.4582 2.56217 13.4659 2.58275 13.4568 2.59714C13.4469 2.61292 13.4515 2.61652 13.4685 2.60626C13.4841 2.59684 13.4969 2.60056 13.4969 2.61454C13.4969 2.62852 13.5218 2.64016 13.5522 2.64034C13.5969 2.64064 13.6004 2.64514 13.5706 2.66398C13.5395 2.6836 13.541 2.68732 13.5794 2.68762C13.6088 2.68786 13.6202 2.70021 13.6116 2.72223C13.5955 2.76309 13.6559 2.81864 13.6924 2.79663C13.7065 2.78811 13.718 2.79969 13.718 2.82242C13.718 2.88482 13.8923 3.02778 13.9514 3.01387C13.9948 3.00367 13.9959 3.00577 13.9608 3.03144C13.9281 3.05544 13.9268 3.06576 13.9535 3.09012C13.9794 3.11376 13.991 3.1113 14.0109 3.07782C14.0347 3.03798 14.0359 3.03804 14.0367 3.07794C14.0371 3.10104 14.0485 3.11994 14.062 3.11994C14.0755 3.11994 14.0848 3.12803 14.0826 3.13793C14.075 3.17321 14.1167 3.23944 14.1383 3.22637C14.1504 3.21905 14.1603 3.22421 14.1603 3.23776C14.1603 3.25132 14.1767 3.25624 14.1969 3.24868C14.2186 3.24052 14.2404 3.25234 14.2503 3.2776C14.2713 3.331 14.4467 3.50414 14.4633 3.48788C14.47 3.48128 14.4977 3.49748 14.5247 3.52388C14.5517 3.55028 14.5684 3.57721 14.5618 3.58369C14.5551 3.59017 14.572 3.60247 14.5994 3.61093C14.6268 3.61939 14.6437 3.64027 14.637 3.65725C14.6303 3.67428 14.6419 3.70206 14.6628 3.71898C14.6939 3.74418 14.7008 3.74382 14.7011 3.71682C14.7015 3.68958 14.7051 3.68946 14.7223 3.71592C14.7338 3.73356 14.7529 3.74976 14.765 3.75192C14.7769 3.75408 14.7868 3.77957 14.7868 3.80855C14.7868 3.83747 14.8006 3.87472 14.8175 3.89134C14.8421 3.91546 14.8482 3.91336 14.8482 3.88066C14.8482 3.85823 14.8365 3.83987 14.8221 3.83987C14.8078 3.83987 14.8029 3.82919 14.8111 3.81611C14.8354 3.77783 14.9212 3.87244 14.9272 3.94408C14.931 3.98841 14.9435 4.00485 14.9669 3.99609C14.9888 3.98787 14.9963 3.99531 14.9879 4.01685C14.9783 4.04115 14.9889 4.04679 15.0261 4.03725C15.0655 4.02723 15.0742 4.03293 15.0629 4.06167C15.043 4.1123 15.0694 4.13366 15.1106 4.10024C15.1369 4.07894 15.141 4.08104 15.1296 4.11002C15.1216 4.13036 15.1286 4.15514 15.1452 4.1651C15.1661 4.17782 15.1689 4.17314 15.1544 4.14956C15.1367 4.12082 15.1398 4.1207 15.1751 4.14878C15.198 4.1669 15.2167 4.19197 15.2167 4.20451C15.2167 4.23229 15.2813 4.29774 15.308 4.29696C15.356 4.29552 15.4037 4.32336 15.4336 4.37004C15.4514 4.39799 15.4543 4.41377 15.4399 4.40507C15.424 4.39548 15.4195 4.40375 15.4284 4.42643C15.4364 4.44683 15.4529 4.45757 15.465 4.45025C15.4771 4.44293 15.487 4.45379 15.487 4.47437C15.487 4.49561 15.5079 4.5118 15.5353 4.5118C15.5652 4.5118 15.579 4.52386 15.5713 4.5433C15.5645 4.56064 15.584 4.59574 15.6147 4.62129C15.6467 4.64799 15.6577 4.65159 15.6405 4.62981C15.6164 4.59922 15.6175 4.59178 15.646 4.59178C15.6655 4.59178 15.6761 4.60018 15.6696 4.61038C15.6631 4.62057 15.6751 4.64307 15.6961 4.66035C15.7172 4.67763 15.748 4.70355 15.7647 4.71794C15.7813 4.73228 15.8113 4.75034 15.8314 4.75802C15.8596 4.76888 15.858 4.77242 15.8238 4.77386C15.7874 4.77548 15.7854 4.7816 15.8115 4.80938C15.8358 4.83505 15.8515 4.83649 15.8785 4.81538C15.9071 4.79306 15.9108 4.7957 15.898 4.82899C15.8893 4.85167 15.8928 4.87663 15.9057 4.88443C15.9186 4.89223 15.9292 4.88749 15.9292 4.87393C15.9292 4.86037 15.9451 4.85521 15.9645 4.86253C15.9839 4.86979 15.9942 4.88995 15.9874 4.90735C15.9806 4.92469 15.9885 4.94706 16.0051 4.95702C16.0259 4.96962 16.029 4.96488 16.015 4.94148C16.004 4.92295 16.0247 4.93422 16.0611 4.96662C16.0974 4.99896 16.1218 5.03933 16.1151 5.05631C16.1084 5.07329 16.1108 5.08601 16.1205 5.08463C16.1301 5.08319 16.1463 5.08469 16.1565 5.08793C16.1865 5.09741 16.2224 5.10557 16.2486 5.10875C16.2621 5.11043 16.2732 5.14546 16.2732 5.18668C16.2732 5.24398 16.2804 5.25573 16.3039 5.23666C16.3404 5.20714 16.4344 5.26245 16.4109 5.29959C16.4029 5.31231 16.4135 5.32917 16.4346 5.33703C16.4556 5.34495 16.466 5.36228 16.4576 5.37554C16.4487 5.38946 16.4701 5.39972 16.5081 5.39972C16.5579 5.39972 16.5679 5.40704 16.5488 5.42972C16.5305 5.45156 16.5414 5.47249 16.5888 5.50657C16.6535 5.55313 16.6537 5.55313 16.6171 5.50657C16.583 5.46325 16.5835 5.46217 16.623 5.49241C16.6465 5.51041 16.6586 5.53639 16.6499 5.55007C16.6413 5.56374 16.6508 5.58684 16.6711 5.60136C16.698 5.62056 16.2148 5.6277 14.8837 5.6277C13.8803 5.6277 13.0636 5.62098 13.0689 5.6127C13.074 5.60448 13.0515 5.57808 13.0188 5.55409C12.9861 5.53009 12.9649 5.50177 12.9716 5.49109C12.9783 5.48041 12.9694 5.47171 12.9517 5.47171C12.9058 5.47171 12.9168 2.20814 12.9629 2.17958C13.0011 2.15589 13.0062 2.15571 13.0027 2.17802ZM3.94808 9.39666C3.94176 9.4128 3.91504 9.42054 3.88875 9.41382C3.85214 9.40446 3.8347 9.41916 3.81425 9.47646C3.79957 9.51761 3.77868 9.54593 3.76793 9.53945C3.75712 9.53291 3.74171 9.54443 3.73366 9.56501C3.72543 9.58589 3.70639 9.59477 3.69042 9.58517C3.67316 9.57473 3.66849 9.57839 3.67863 9.59441C3.69822 9.62536 3.61156 9.67786 3.58275 9.65248C3.57206 9.64306 3.57126 9.64882 3.58097 9.66532C3.59086 9.68212 3.58594 9.69532 3.56979 9.69532C3.55302 9.69532 3.54626 9.71541 3.55376 9.74331C3.56211 9.77451 3.5545 9.79131 3.53208 9.79131C3.51304 9.79131 3.4975 9.80211 3.4975 9.81531C3.4975 9.8285 3.50923 9.8393 3.52354 9.8393C3.53785 9.8393 3.54258 9.85028 3.5341 9.86372C3.52563 9.8771 3.5056 9.88094 3.48963 9.87218C3.46918 9.86096 3.46949 9.86558 3.49074 9.88802C3.51076 9.90914 3.51285 9.92923 3.49682 9.94807C3.46679 9.98341 3.44811 10.1273 3.4736 10.1273C3.48392 10.1273 3.49191 10.157 3.49129 10.1933C3.48908 10.3209 3.49774 10.3673 3.52385 10.3673C3.53828 10.3673 3.56672 10.3835 3.58699 10.4032C3.60726 10.423 3.61727 10.4392 3.60916 10.4392C3.60111 10.4392 3.61168 10.4716 3.63262 10.5112C3.65357 10.5508 3.68581 10.5832 3.7043 10.5832C3.72273 10.5832 3.74595 10.6129 3.75583 10.6492C3.76572 10.6855 3.77905 10.7012 3.78544 10.6842C3.79428 10.6608 3.80534 10.6599 3.83071 10.6805C3.84926 10.6955 3.87855 10.7028 3.89594 10.6968C3.9377 10.6822 4.06257 10.7449 4.06257 10.7804C4.06257 10.7958 4.07695 10.7891 4.09457 10.7656C4.12369 10.7267 4.12952 10.7264 4.15901 10.7611C4.19807 10.807 14.7499 10.8211 14.7499 10.7752C14.7499 10.762 14.7616 10.7512 14.776 10.7512C14.7903 10.7512 14.7949 10.7647 14.7864 10.7812C14.7779 10.7977 14.7873 10.7915 14.8073 10.7675C14.8426 10.7253 14.8447 10.7253 14.8698 10.7675C14.8945 10.8089 14.8958 10.809 14.8966 10.7684C14.8972 10.7338 14.9063 10.7302 14.944 10.75C14.9799 10.7687 14.9941 10.7655 15.0056 10.7363C15.0141 10.7148 15.0364 10.7042 15.057 10.7119C15.0778 10.7197 15.0908 10.7131 15.0874 10.6964C15.0842 10.6802 15.1057 10.668 15.1354 10.669C15.165 10.6699 15.1871 10.6591 15.1845 10.645C15.182 10.6308 15.1964 10.6189 15.2167 10.6186C15.2803 10.6175 15.3176 10.581 15.31 10.5271C15.3052 10.4929 15.3154 10.4761 15.34 10.4776C15.3644 10.4792 15.3782 10.4569 15.38 10.4128C15.3826 10.3509 15.4432 10.2605 15.4666 10.2834C15.4722 10.2888 15.4792 10.2615 15.4822 10.2228C15.4867 10.1648 15.4801 10.1552 15.4443 10.168C15.404 10.1824 15.4037 10.1803 15.441 10.1374C15.4916 10.0791 15.4864 10.0228 15.4174 9.88358C15.3871 9.82251 15.3645 9.76329 15.3671 9.75195C15.3756 9.71578 15.3352 9.64708 15.3133 9.66034C15.3018 9.6673 15.2818 9.63754 15.269 9.59417C15.2562 9.55079 15.2447 9.52883 15.2435 9.54533C15.2404 9.58823 15.1921 9.58259 15.1921 9.53933C15.1921 9.51953 15.1788 9.50603 15.1625 9.50933C15.1463 9.51263 15.1324 9.50273 15.1318 9.48732C15.1312 9.47196 15.1207 9.45036 15.1084 9.43932C15.0953 9.42774 15.0934 9.43194 15.1036 9.44934C15.1369 9.50567 15.0511 9.48036 15.0122 9.42234C14.9731 9.36415 14.8774 9.34891 14.8424 9.39535C14.8312 9.41016 14.8242 9.40788 14.824 9.38923C14.8235 9.34849 4.13548 9.34525 4.0576 9.38593C4.03002 9.40032 4.01387 9.40206 4.02167 9.38977C4.02947 9.37741 4.01872 9.36733 3.99771 9.36733C3.97677 9.36733 3.95441 9.38053 3.94808 9.39666ZM3.9213 13.1369C3.8909 13.1509 3.86603 13.1706 3.86603 13.1807C3.86603 13.1908 3.84944 13.199 3.82917 13.199C3.8089 13.199 3.79232 13.2199 3.79232 13.2454C3.79232 13.2847 3.7317 13.325 3.66536 13.3298C3.6325 13.3322 3.61309 13.367 3.64466 13.367C3.66247 13.367 3.64546 13.3935 3.60676 13.426C3.56813 13.4585 3.54405 13.4925 3.55339 13.5015C3.56266 13.5107 3.54737 13.5375 3.51936 13.5612C3.49135 13.585 3.47465 13.6142 3.48226 13.6263C3.48988 13.6383 3.48662 13.6803 3.47508 13.7196C3.46285 13.7612 3.46365 13.8076 3.47704 13.831C3.49197 13.857 3.49099 13.8709 3.47428 13.8709C3.44645 13.8709 3.45045 13.9367 3.48122 13.9849C3.49283 14.0031 3.48773 14.0152 3.46826 14.0157C3.44676 14.0162 3.4502 14.0269 3.4787 14.048C3.5021 14.0654 3.51408 14.0867 3.5053 14.0953C3.49651 14.1039 3.50302 14.1109 3.51973 14.1109C3.55652 14.1109 3.62034 14.17 3.62034 14.2041C3.62034 14.2588 3.67986 14.3509 3.72414 14.3646C3.75006 14.3727 3.76603 14.3926 3.75958 14.409C3.75313 14.4255 3.76339 14.4389 3.78237 14.4389C3.80135 14.4389 3.81726 14.4218 3.81769 14.4009C3.81836 14.3681 3.82297 14.3687 3.8511 14.4049C3.86903 14.428 3.90122 14.4469 3.92253 14.4469C3.94391 14.4469 3.96927 14.4593 3.97892 14.4746C3.98979 14.4917 3.98567 14.4958 3.96811 14.4851C3.95251 14.4757 3.93973 14.4788 3.93973 14.492C3.93973 14.5304 3.99268 14.5517 4.01202 14.5211C4.0221 14.5052 4.04894 14.5004 4.07473 14.5101C4.10588 14.5218 4.11429 14.5183 4.10201 14.4989C4.09156 14.4824 4.09893 14.4709 4.11994 14.4709C4.13953 14.4709 4.16195 14.4871 4.16975 14.5069C4.19168 14.5628 14.7118 14.5615 14.7936 14.5055C14.8242 14.4845 14.8482 14.4793 14.8482 14.4935C14.8482 14.5075 14.8896 14.518 14.9403 14.5169C14.991 14.5159 15.0192 14.5098 15.0031 14.5034C14.987 14.497 14.98 14.476 14.9876 14.4567C14.9977 14.4309 15.0097 14.4285 15.0333 14.4476C15.0571 14.4668 15.0713 14.4631 15.0885 14.4331C15.1042 14.4057 15.1172 14.4014 15.1288 14.4198C15.1531 14.4583 15.1932 14.4535 15.1777 14.414C15.1647 14.3809 15.2266 14.3029 15.2659 14.3029C15.3138 14.3029 15.3641 14.2221 15.3641 14.1452C15.3641 14.0712 15.4122 14.0208 15.414 14.0929C15.4144 14.1094 15.4264 14.1033 15.4407 14.0795C15.4548 14.0555 15.4604 14.0204 15.4529 14.0015C15.4455 13.9825 15.4497 13.9669 15.4624 13.9669C15.4751 13.9669 15.4791 13.9508 15.4714 13.931C15.4636 13.9114 15.4446 13.9024 15.4291 13.9112C15.4136 13.92 15.4203 13.9055 15.444 13.8791C15.4967 13.8203 15.4994 13.7749 15.4501 13.7749C15.4298 13.7749 15.4133 13.7641 15.4133 13.7509C15.4133 13.7377 15.4257 13.7269 15.4408 13.7269C15.4606 13.7269 15.4601 13.7172 15.4394 13.6927C15.4233 13.6739 15.4137 13.6388 15.4179 13.6147C15.4227 13.5876 15.4126 13.5737 15.3915 13.578C15.3663 13.5833 15.3612 13.5671 15.3718 13.5155C15.3798 13.4764 15.3737 13.4339 15.3579 13.4184C15.3213 13.3827 15.2824 13.3829 15.305 13.4187C15.3155 13.4353 15.3119 13.4399 15.2957 13.4301C15.281 13.4213 15.273 13.3933 15.278 13.368C15.2829 13.3427 15.269 13.3079 15.2471 13.2905C15.2179 13.2674 15.2122 13.267 15.2257 13.289C15.2359 13.3055 15.2372 13.319 15.2287 13.319C15.2038 13.319 15.143 13.2527 15.143 13.2254C15.143 13.2117 15.1264 13.2067 15.1062 13.2143C15.0846 13.2224 15.0691 13.2146 15.0689 13.1956C15.0686 13.1683 15.0651 13.1683 15.0476 13.1953C15.0321 13.2191 15.0225 13.2113 15.0106 13.1653C15.0019 13.131 14.9832 13.103 14.9691 13.103C14.9551 13.103 14.9487 13.1111 14.955 13.121C14.9688 13.1428 14.7798 13.1401 14.7573 13.1182C14.7267 13.0883 4.10753 13.101 4.12645 13.1309C4.13812 13.1494 4.13284 13.1518 4.11042 13.1382C4.06116 13.1085 3.98408 13.1079 3.9213 13.1369ZM4.03389 16.8702C4.02941 16.8832 3.98703 16.8983 3.93973 16.9038C3.89041 16.9096 3.85663 16.9258 3.8605 16.942C3.86418 16.9575 3.85816 16.9647 3.84705 16.958C3.83593 16.9513 3.81075 16.9557 3.79115 16.9678C3.76787 16.9822 3.76591 16.99 3.78538 16.9903C3.8019 16.9904 3.80903 17.0068 3.80129 17.0265C3.79349 17.0462 3.77752 17.0565 3.76566 17.0494C3.72955 17.0276 3.64006 17.0877 3.65443 17.1242C3.6618 17.143 3.65449 17.1555 3.63791 17.1523C3.62151 17.1492 3.60959 17.1655 3.61149 17.1886C3.61334 17.2117 3.59884 17.2306 3.57931 17.2306C3.55972 17.2306 3.55063 17.2415 3.55904 17.2548C3.56746 17.268 3.55714 17.2854 3.53613 17.2932C3.51082 17.3027 3.49995 17.333 3.50388 17.3831C3.50714 17.4246 3.49872 17.4568 3.48521 17.4546C3.46513 17.4513 3.45726 17.6216 3.47053 17.7737C3.47188 17.7886 3.51789 17.846 3.5728 17.9013C3.65314 17.9822 3.66702 18.0085 3.64374 18.0359C3.61217 18.073 3.63176 18.087 3.73643 18.1016C3.79551 18.1099 3.84336 18.1425 3.79643 18.1425C3.78065 18.1425 3.76775 18.1533 3.76775 18.1665C3.76775 18.1797 3.80528 18.1905 3.8511 18.1905C3.90054 18.1905 3.93992 18.2044 3.9479 18.2247C3.95582 18.2449 3.98101 18.2538 4.00969 18.2464C4.0428 18.238 4.06178 18.2481 4.06976 18.2783C4.08026 18.3179 4.08174 18.3182 4.08432 18.2805C4.08782 18.229 4.15022 18.2249 4.16988 18.2749C4.19211 18.3315 7.76052 18.3275 7.78275 18.2709C7.79473 18.2403 7.80455 18.2388 7.83416 18.2627C7.85431 18.2791 7.87071 18.2817 7.87071 18.2686C7.87071 18.2555 7.89005 18.245 7.9137 18.2452C7.98734 18.246 8.11584 18.182 8.1304 18.1372C8.13801 18.1137 8.16289 18.0937 8.18561 18.0926C8.20859 18.0916 8.21399 18.0856 8.19778 18.0791C8.16627 18.0666 8.2291 17.9916 8.29144 17.9675C8.31079 17.9599 8.31312 17.9535 8.29679 17.9525C8.28082 17.9514 8.274 17.9297 8.28119 17.9028C8.28819 17.8766 8.30539 17.862 8.31927 17.8704C8.33524 17.88 8.34009 17.8625 8.33235 17.8229C8.32559 17.7883 8.32952 17.7657 8.34107 17.7727C8.35262 17.7797 8.36337 17.7713 8.3649 17.754C8.3665 17.7367 8.36926 17.7087 8.37105 17.6918C8.37289 17.6748 8.39095 17.6495 8.41121 17.6355C8.44395 17.6129 8.44395 17.6113 8.41121 17.6213C8.38167 17.6302 8.37498 17.6094 8.37749 17.5155C8.37921 17.4512 8.37301 17.3986 8.36361 17.3986C8.32553 17.3986 8.267 17.2371 8.29513 17.2096C8.31558 17.1896 8.31472 17.1748 8.29181 17.1526C8.267 17.1286 8.26417 17.131 8.27738 17.1649C8.28954 17.1962 8.2842 17.2035 8.25668 17.1932C8.23623 17.1856 8.21362 17.1574 8.20644 17.1305C8.19925 17.1037 8.18162 17.0889 8.16719 17.0976C8.15275 17.1063 8.14096 17.0975 8.14096 17.078C8.14096 17.0585 8.15478 17.0363 8.17167 17.0285C8.18856 17.0207 8.17186 17.0183 8.13463 17.0232C8.0839 17.0298 8.07303 17.0248 8.09139 17.0031C8.12309 16.9659 8.09311 16.9357 8.05509 16.9666C8.03538 16.9825 8.01161 16.9766 7.9809 16.9481C7.95025 16.9197 7.90682 16.9089 7.8465 16.9145C7.78686 16.92 7.7467 16.9102 7.72508 16.8847C7.68613 16.839 4.20188 16.8252 4.17307 16.8707C4.16294 16.8868 4.14261 16.8868 4.11183 16.8707C4.05453 16.8408 4.04415 16.8407 4.03389 16.8702Z" fill="#241C4C"/>
<path fill-rule="evenodd" clip-rule="evenodd" d="M2.27395 0.0178679C2.21578 0.0229674 2.16271 0.0410857 2.15602 0.0581241C2.14902 0.0759424 2.11953 0.0845816 2.08655 0.0784022C2.05504 0.0725227 2.02175 0.0795421 2.0126 0.0939407C2.00351 0.108399 1.96807 0.120218 1.93398 0.120218C1.89535 0.120218 1.87575 0.131557 1.88208 0.150215C1.89529 0.189332 1.9989 0.20421 1.9989 0.166954C1.9989 0.145716 2.00744 0.145236 2.03189 0.165094C2.07402 0.199231 2.10522 0.170613 2.07046 0.129697C2.04982 0.1054 2.05787 0.10114 2.1075 0.109959C2.14238 0.116079 2.17088 0.110439 2.17088 0.0973604C2.17088 0.0842816 2.21247 0.0770223 2.26326 0.0812219C2.31412 0.0854215 2.37769 0.080502 2.40453 0.0702429C2.43143 0.0599839 2.43893 0.0508648 2.42124 0.0499049C2.40355 0.0490049 2.39593 0.037426 2.40428 0.0242273C2.41264 0.0110285 2.41055 0.00208936 2.39962 0.00442914C2.38868 0.00670892 2.33211 0.0127684 2.27395 0.0178679ZM2.63769 0.0340064C2.63769 0.0558443 2.65488 0.0633436 2.68658 0.0552444C2.71342 0.048405 2.72933 0.0332264 2.72196 0.0215275C2.70052 -0.0124293 2.63769 -0.00313015 2.63769 0.0340064ZM12.0338 0.0296868C12.0618 0.0450453 12.0851 0.0450453 12.1008 0.0296868C12.1165 0.0143882 12.1015 0.00622897 12.0578 0.00622897C12.0013 0.00622897 11.9975 0.00988862 12.0338 0.0296868ZM12.2842 0.0602239C12.292 0.080022 12.3239 0.0962205 12.3551 0.0962205C12.3864 0.0962205 12.4165 0.109719 12.4223 0.126218C12.4304 0.149795 12.441 0.149375 12.4722 0.124238C12.4947 0.10612 12.5337 0.0990402 12.5622 0.107859C12.5915 0.116919 12.6125 0.112719 12.6125 0.0978403C12.6125 0.0613638 12.4655 0.0656834 12.4636 0.10222C12.4627 0.118718 12.452 0.107919 12.4398 0.0782222C12.4237 0.0390459 12.3973 0.0242273 12.3438 0.0242273C12.2884 0.0242273 12.2736 0.0331664 12.2842 0.0602239ZM12.6003 0.144216C12.5919 0.157415 12.596 0.168214 12.6093 0.168214C12.6227 0.168214 12.6531 0.187112 12.677 0.21021C12.7183 0.250226 12.7195 0.250106 12.703 0.20751C12.6897 0.173073 12.6947 0.166234 12.7248 0.177513C12.7464 0.185612 12.7692 0.192211 12.7757 0.192211C12.7821 0.192211 12.7806 0.20289 12.7724 0.215909C12.7637 0.229648 12.7739 0.233488 12.7966 0.224968C12.8219 0.215489 12.8332 0.221909 12.8285 0.243267C12.8246 0.261385 12.8366 0.273024 12.8551 0.269184C12.8738 0.265345 12.9116 0.281543 12.9392 0.305181C12.9669 0.328819 12.9806 0.333318 12.9696 0.31508C12.9559 0.292342 12.9604 0.285443 12.9838 0.293062C13.0026 0.299181 13.0189 0.31412 13.0201 0.326179C13.0256 0.383653 13.0645 0.433689 13.0948 0.42235C13.1133 0.41539 13.1285 0.42145 13.1285 0.435909C13.1285 0.452107 13.1442 0.449587 13.1699 0.429129C13.2064 0.400212 13.2094 0.401412 13.1947 0.439448C13.1834 0.468905 13.1873 0.477185 13.2067 0.465486C13.2256 0.454027 13.2299 0.461586 13.2194 0.488224C13.2108 0.510182 13.2144 0.52818 13.2275 0.52818C13.2406 0.52818 13.2513 0.517381 13.2513 0.504182C13.2513 0.490983 13.2624 0.480184 13.2759 0.480184C13.2894 0.480184 13.3005 0.496383 13.3005 0.516181C13.3005 0.535979 13.317 0.552178 13.3373 0.552178C13.3576 0.552178 13.3742 0.545998 13.3742 0.538439C13.3742 0.514981 13.3053 0.456187 13.2779 0.456187C13.2635 0.456187 13.2379 0.434589 13.221 0.408191C13.2041 0.381794 13.176 0.360196 13.1584 0.360196C13.1408 0.360196 13.1027 0.338598 13.0737 0.3122C13.0447 0.285803 13.0064 0.264205 12.9887 0.264205C12.971 0.264205 12.9565 0.253406 12.9565 0.240207C12.9565 0.227008 12.9398 0.216209 12.9193 0.216209C12.8989 0.216209 12.8574 0.20373 12.8272 0.188492C12.7123 0.130477 12.6859 0.120218 12.6512 0.120218C12.6315 0.120218 12.6086 0.131017 12.6003 0.144216ZM1.67951 0.240207C1.67951 0.253406 1.6574 0.264205 1.63037 0.264205C1.60335 0.264205 1.58124 0.275004 1.58124 0.288202C1.58124 0.301401 1.56385 0.3122 1.5426 0.3122C1.4985 0.3122 1.43383 0.368235 1.43383 0.406451C1.43383 0.42061 1.4571 0.432189 1.4856 0.432189C1.52227 0.432189 1.53308 0.42133 1.5227 0.394932C1.5141 0.373034 1.51834 0.363915 1.53308 0.372794C1.54684 0.381074 1.58265 0.365415 1.61268 0.337998C1.64266 0.31052 1.68934 0.272244 1.71636 0.252926C1.7601 0.221609 1.76077 0.217649 1.72251 0.216989C1.69886 0.216569 1.67951 0.227008 1.67951 0.240207ZM1.31098 0.456187C1.29151 0.482584 1.2597 0.504182 1.24029 0.504182C1.20104 0.504182 0.770474 0.921983 0.770474 0.960019C0.770474 1.01977 0.843381 0.973098 0.890921 0.882986C0.909839 0.84711 0.935452 0.823892 0.947797 0.831391C0.960205 0.838891 0.976358 0.822392 0.983729 0.794855C0.991161 0.767257 1.00492 0.749379 1.01444 0.755138C1.02396 0.760838 1.05234 0.731501 1.07752 0.689865C1.1027 0.648169 1.12752 0.626571 1.13274 0.641809C1.14355 0.673486 1.21271 0.654768 1.21271 0.620211C1.21271 0.607612 1.20165 0.604013 1.18814 0.612172C1.17463 0.620331 1.16357 0.615592 1.16357 0.601613C1.16357 0.576175 1.17285 0.572816 1.25822 0.567176C1.33598 0.562077 1.43567 0.475265 1.40514 0.439328C1.36915 0.397032 1.35244 0.400032 1.31098 0.456187ZM13.4016 0.556197C13.3966 0.626211 13.4253 0.669886 13.4662 0.654588C13.4942 0.644089 13.4994 0.649008 13.4847 0.672166C13.4699 0.695564 13.4753 0.700244 13.5045 0.689265C13.5265 0.681045 13.5522 0.686265 13.5614 0.700904C13.5716 0.717042 13.5671 0.720822 13.55 0.710443C13.5343 0.701024 13.5216 0.702583 13.5216 0.713922C13.5216 0.725261 13.5603 0.748179 13.6076 0.764918C13.6941 0.795455 13.7146 0.824612 13.6688 0.852269C13.6533 0.861628 13.6573 0.880107 13.6793 0.901705C13.7262 0.94742 13.7345 0.945441 13.7508 0.884426C13.7667 0.825032 13.5437 0.600173 13.4691 0.600173C13.4458 0.600173 13.4218 0.581275 13.4157 0.558177C13.4058 0.521161 13.4041 0.520921 13.4016 0.556197ZM13.8462 0.972138C13.8891 1.03153 13.9391 1.08013 13.9574 1.08013C13.9756 1.08013 13.9876 1.09363 13.984 1.11013C13.9804 1.12662 14.0094 1.17252 14.0484 1.21212C14.0873 1.25171 14.1098 1.26791 14.0983 1.24811C14.0801 1.21709 14.083 1.21668 14.1188 1.24505C14.2338 1.33624 14.14 1.20348 13.9765 1.04377C13.7642 0.836371 13.7377 0.821852 13.8462 0.972138ZM0.701682 1.04533C0.684054 1.06483 0.675577 1.09003 0.682764 1.10143C0.68995 1.11276 0.668391 1.14222 0.634855 1.16682C0.60138 1.19136 0.573925 1.23053 0.573925 1.25381C0.573925 1.27709 0.562869 1.29611 0.549356 1.29611C0.535844 1.29611 0.524788 1.31771 0.524788 1.3441C0.524788 1.3705 0.513732 1.3921 0.500219 1.3921C0.486706 1.3921 0.476019 1.4056 0.47651 1.4221C0.477002 1.43859 0.502307 1.4224 0.532711 1.3861C0.563176 1.3498 0.600827 1.32011 0.616428 1.32011C0.63203 1.32011 0.64069 1.29911 0.635592 1.27349C0.629143 1.24079 0.637005 1.23083 0.66188 1.24019C0.685528 1.24901 0.692775 1.24187 0.683623 1.21865C0.67613 1.19946 0.687063 1.16994 0.707946 1.15302C0.72883 1.1361 0.746703 1.09927 0.747625 1.07119C0.749283 1.02271 0.750327 1.02253 0.768078 1.06687C0.785952 1.11144 0.787426 1.11115 0.800877 1.06087C0.817645 0.998416 0.753153 0.988337 0.701682 1.04533ZM14.246 1.34428C14.2565 1.37716 14.2748 1.4077 14.2866 1.41214C14.2984 1.41658 14.3011 1.43121 14.2925 1.44471C14.2828 1.46025 14.2966 1.46319 14.3302 1.45275C14.3782 1.43787 14.3817 1.44273 14.3666 1.50165C14.3508 1.56326 14.3536 1.56608 14.4169 1.5506C14.4656 1.5386 14.4789 1.54196 14.4657 1.56284C14.4554 1.57916 14.458 1.58522 14.4717 1.57694C14.485 1.5689 14.5558 1.6238 14.6291 1.69891C14.7023 1.77402 14.7427 1.82058 14.7187 1.80234C14.673 1.76766 14.6359 1.77972 14.6619 1.82082C14.6703 1.83396 14.7054 1.83972 14.7401 1.8336C14.7796 1.82658 14.7972 1.83168 14.7873 1.84722C14.7787 1.86089 14.784 1.87205 14.7991 1.87205C14.8142 1.87205 14.8196 1.88309 14.8111 1.89665C14.8025 1.91015 14.8101 1.91825 14.828 1.91465C14.8459 1.91099 14.862 1.92425 14.8639 1.94405C14.8657 1.96384 14.8684 1.98946 14.87 2.00098C14.8716 2.0125 14.8897 2.00824 14.9103 1.99156C14.9418 1.966 14.9451 1.96792 14.931 2.00362C14.9164 2.04088 14.9623 2.09211 15.0075 2.08893C15.0319 2.08719 15.1107 2.17208 15.1011 2.18972C15.0957 2.1995 15.1104 2.20034 15.1336 2.19164C15.161 2.18138 15.1699 2.1851 15.159 2.20226C15.1498 2.21684 15.1537 2.23562 15.1677 2.24402C15.1816 2.25242 15.1866 2.2694 15.1789 2.28169C15.1582 2.31439 15.2019 2.30893 15.2373 2.27444C15.2613 2.25098 15.2702 2.25494 15.2806 2.29339C15.2877 2.32009 15.3177 2.35225 15.3473 2.36497C15.3769 2.37763 15.4048 2.41404 15.4094 2.4459C15.4208 2.52419 15.4834 2.58077 15.5494 2.57231C15.5925 2.56679 15.6031 2.57681 15.6007 2.62066C15.5982 2.66488 15.6087 2.67448 15.6527 2.66848C15.6942 2.66284 15.7041 2.67028 15.6929 2.69878C15.6822 2.72625 15.6889 2.73249 15.7177 2.72169C15.7479 2.71035 15.7573 2.72175 15.7573 2.76939C15.7573 2.80383 15.7689 2.83196 15.7831 2.83196C15.7972 2.83196 15.8332 2.8589 15.8629 2.89184C15.8927 2.92483 15.9447 2.95555 15.9784 2.96023C16.0122 2.96491 16.0399 2.98015 16.0399 2.99407C16.0399 3.00799 16.0681 3.05034 16.1026 3.08826C16.1372 3.12612 16.1734 3.17729 16.1831 3.20195C16.1928 3.22661 16.2071 3.24052 16.215 3.23291C16.2228 3.22523 16.2557 3.22883 16.2881 3.24088C16.3752 3.27322 16.3619 3.25144 16.2026 3.10062C16.0004 2.90936 15.9555 2.87612 15.9244 2.89496C15.9081 2.90474 15.9041 2.90042 15.9143 2.88422C15.9358 2.8502 15.6807 2.5969 15.6387 2.61058C15.622 2.61604 15.6115 2.61082 15.6152 2.59894C15.6218 2.57873 15.1815 2.13603 15.155 2.13603C15.1481 2.13603 15.0165 2.01454 14.8624 1.86605C14.3299 1.35292 14.2188 1.25885 14.246 1.34428ZM2.56435 1.40812C2.56417 1.42354 2.55679 1.45449 2.54795 1.47687C2.53462 1.51095 2.54168 1.51455 2.59094 1.49877C2.62344 1.48833 2.67006 1.48107 2.69456 1.48263C2.71907 1.48413 2.73479 1.47273 2.72957 1.45737C2.72435 1.44201 2.69321 1.42971 2.66041 1.43007C2.62767 1.43043 2.59273 1.41934 2.58278 1.40542C2.57061 1.38832 2.56459 1.38922 2.56435 1.40812ZM2.76053 1.44891C2.76053 1.48539 2.77073 1.48989 2.81581 1.47321C2.84621 1.46199 4.8031 1.44981 7.16445 1.44621L11.4578 1.43967L11.4602 3.52172C11.4615 4.66683 11.4608 5.64312 11.4585 5.69123C11.4563 5.73941 11.4662 5.78596 11.4807 5.79466C11.4952 5.80336 11.5069 5.8465 11.5069 5.89054C11.5069 5.94135 11.5211 5.97585 11.5458 5.98509C11.604 6.00692 11.6346 6.00272 11.6173 5.97525C11.6088 5.96187 11.5904 5.95779 11.5765 5.96619C11.5621 5.97489 11.5639 5.95827 11.5807 5.92767C11.5969 5.89809 11.5991 5.88052 11.5857 5.88862C11.5722 5.89677 11.555 5.8876 11.5474 5.86834C11.5399 5.84902 11.5442 5.82682 11.5571 5.81902C11.5849 5.80228 11.5888 5.75843 11.5622 5.76251C11.4992 5.77223 11.4775 5.75843 11.5049 5.72615C11.5362 5.68925 11.5336 5.51563 11.502 5.53465C11.4912 5.54119 11.4824 5.53567 11.4824 5.52229C11.4824 5.50897 11.5017 5.48707 11.5254 5.47363C11.5663 5.45036 11.5663 5.44916 11.5254 5.44844C11.4848 5.44778 11.4824 5.33601 11.4824 3.44313C11.4824 1.86149 11.4759 1.43619 11.4517 1.42732C11.3363 1.38502 2.76053 1.40626 2.76053 1.44891ZM0.457224 1.48131C0.440333 1.48725 0.426513 1.51281 0.426513 1.53806C0.426513 1.56338 0.415457 1.58408 0.401945 1.58408C0.388432 1.58408 0.377376 1.61108 0.377376 1.64407C0.377376 1.67707 0.36632 1.70407 0.352808 1.70407C0.339295 1.70407 0.328239 1.73581 0.328239 1.77462C0.328239 1.81344 0.317183 1.8519 0.30367 1.86005C0.290158 1.86821 0.279102 1.89749 0.279102 1.92515V1.97536L0.324615 1.92413C0.349614 1.89599 0.376885 1.87961 0.385238 1.88771C0.393591 1.89587 0.395864 1.87967 0.390397 1.85166C0.384378 1.82124 0.397031 1.79118 0.421845 1.7769C0.457715 1.7562 0.458452 1.74978 0.427189 1.72981C0.396355 1.71007 0.397584 1.70419 0.435419 1.69003C0.470307 1.67695 0.472764 1.66903 0.447028 1.65307C0.420494 1.6367 0.420371 1.63274 0.446414 1.63244C0.464103 1.63226 0.47129 1.62062 0.462383 1.60658C0.453539 1.59254 0.464656 1.56122 0.487136 1.53698C0.52878 1.49199 0.512626 1.46193 0.457224 1.48131ZM2.49027 1.48455C2.49027 1.50177 2.46614 1.50873 2.42916 1.50219C2.39126 1.49547 2.36025 1.50489 2.34765 1.52691C2.33648 1.5464 2.30288 1.56422 2.27303 1.56638C2.23882 1.5689 2.22346 1.58222 2.23144 1.6025C2.23832 1.62014 2.23304 1.62794 2.21953 1.61978C2.20608 1.61168 2.17856 1.62116 2.15841 1.64084C2.11192 1.68619 2.11198 1.70407 2.1586 1.70407C2.17887 1.70407 2.19545 1.69327 2.19545 1.68007C2.19545 1.66687 2.21253 1.65607 2.23335 1.65607C2.25417 1.65607 2.29495 1.63448 2.32395 1.60808C2.35294 1.58168 2.39538 1.56008 2.41817 1.56008C2.46534 1.56008 2.53001 1.49487 2.50606 1.47153C2.4974 1.46301 2.49027 1.46889 2.49027 1.48455ZM2.06665 1.68535C2.04607 1.73887 2.08059 1.79964 2.11241 1.76592C2.13274 1.74439 2.13194 1.72615 2.10915 1.69573C2.08649 1.66543 2.07531 1.66273 2.06665 1.68535ZM1.91727 1.86737C1.89461 1.89185 1.87606 1.92449 1.87606 1.93991C1.87606 1.95539 1.86433 1.96804 1.85002 1.96804C1.83571 1.96804 1.83159 1.98004 1.84093 1.99474C1.8502 2.00938 1.84252 2.03086 1.82391 2.04238C1.79941 2.0575 1.79855 2.06338 1.82078 2.06368C1.83767 2.06386 1.85149 2.07663 1.85149 2.09205C1.85149 2.10741 1.8443 2.11299 1.83552 2.10441C1.81783 2.08713 1.755 2.15805 1.75438 2.19602C1.75414 2.20922 1.76575 2.20382 1.78012 2.18402C1.8002 2.15649 1.80272 2.16399 1.79105 2.21606C1.78116 2.26028 1.78473 2.27863 1.80137 2.26862C1.81544 2.2601 1.82692 2.23286 1.82692 2.20802C1.82692 2.18318 1.83798 2.15619 1.85149 2.14803C1.865 2.13987 1.87606 2.11221 1.87606 2.08659C1.87606 2.06098 1.88693 2.04004 1.90014 2.04004C1.9134 2.04004 1.93171 2.01034 1.9408 1.97404C1.94989 1.93775 1.96936 1.90037 1.98404 1.89107C2.00296 1.87901 2.00314 1.86659 1.98459 1.84848C1.9661 1.83042 1.94639 1.83594 1.91727 1.86737ZM0.288253 2.0287C0.296545 2.04988 0.287393 2.07165 0.266879 2.07933C0.238441 2.09001 0.231193 2.14509 0.231992 2.34487C0.233036 2.59367 0.252875 2.66608 0.266449 2.47074C0.270257 2.41548 0.288499 2.35975 0.306987 2.34691C0.33346 2.32843 0.332108 2.32609 0.300538 2.33587C0.267124 2.34619 0.263439 2.33581 0.27818 2.27216C0.287824 2.23028 0.297528 2.18792 0.299678 2.17802C0.301889 2.16813 0.30367 2.14317 0.30367 2.12259C0.30367 2.10201 0.314726 2.09187 0.328239 2.10003C0.341752 2.10819 0.352808 2.09379 0.352808 2.06799C0.352808 2.04226 0.334995 2.01448 0.313191 2.00632C0.284568 1.99558 0.277689 2.00176 0.288253 2.0287ZM12.963 2.17958C12.9169 2.20814 12.9059 5.47171 12.9518 5.47171C12.9695 5.47171 12.9784 5.48041 12.9717 5.49109C12.965 5.50177 12.9862 5.53009 13.0189 5.55409C13.0516 5.57808 13.0724 5.60724 13.0651 5.61882C13.0578 5.6304 13.0768 5.6361 13.1073 5.6316C13.1645 5.62302 13.2024 5.57005 13.1551 5.56471C13.0515 5.55301 13.0056 5.51635 13.0056 5.44514C13.0056 5.40698 12.9946 5.37572 12.9811 5.37572C12.9649 5.37572 12.9565 4.83577 12.9565 3.80387C12.9565 2.93935 12.9624 2.23202 12.9696 2.23202C12.9768 2.23202 13.0204 2.26712 13.0664 2.31001C13.1125 2.35291 13.2017 2.4312 13.2646 2.484C13.3275 2.53679 13.4942 2.69098 13.635 2.82662C13.859 3.04248 13.8969 3.07008 13.9396 3.04776C13.9963 3.01813 14.0052 2.99515 13.9523 3.01501C13.9102 3.03078 13.7783 2.93833 13.8165 2.91991C13.8306 2.91314 13.8282 2.91032 13.8111 2.91368C13.7701 2.92177 13.7181 2.86952 13.7181 2.82026C13.7181 2.79873 13.7066 2.78811 13.6924 2.79663C13.656 2.81864 13.5956 2.76309 13.6117 2.72223C13.6203 2.70022 13.6089 2.68786 13.5795 2.68762C13.541 2.68732 13.5396 2.6836 13.5707 2.66398C13.6024 2.64394 13.6017 2.64064 13.5657 2.64034C13.52 2.63992 13.4156 2.54765 13.373 2.4699C13.3507 2.42916 13.3398 2.42604 13.3086 2.4513C13.2765 2.4774 13.2723 2.47332 13.2796 2.42286C13.2865 2.37571 13.2777 2.36431 13.2353 2.36563C13.2064 2.36653 13.187 2.35573 13.1924 2.34163C13.2136 2.28637 13.0886 2.17071 13.0454 2.20568C13.0092 2.23502 12.995 2.22584 13.0027 2.17802C13.0063 2.15571 13.0011 2.15589 12.963 2.17958ZM1.7273 2.26802C1.71544 2.47038 1.71987 2.56775 1.74093 2.56811C1.77447 2.56871 1.78632 2.31421 1.75518 2.26202C1.73209 2.22332 1.72994 2.2238 1.7273 2.26802ZM13.9932 3.09678C13.9573 3.15347 14.1388 3.34881 14.2046 3.32434C14.2222 3.3178 14.2312 3.32098 14.2247 3.33136C14.2181 3.34173 14.2673 3.40173 14.3339 3.46472C14.4006 3.52772 14.4552 3.56767 14.4552 3.55357C14.4552 3.53942 14.4659 3.5279 14.479 3.5279C14.4921 3.5279 14.4967 3.54338 14.4892 3.56233C14.4809 3.58363 14.5374 3.65713 14.637 3.75432C14.7888 3.90262 14.8519 3.95008 14.8068 3.88186C14.7958 3.86537 14.7869 3.83027 14.7869 3.80387C14.7869 3.77747 14.777 3.75408 14.7651 3.75192C14.753 3.74976 14.7338 3.73356 14.7224 3.71592C14.7052 3.68946 14.7015 3.68958 14.7012 3.71682C14.7009 3.74382 14.694 3.74418 14.6629 3.71898C14.642 3.70206 14.6304 3.67428 14.637 3.65725C14.6437 3.64027 14.6269 3.61939 14.5995 3.61093C14.5721 3.60247 14.5552 3.59017 14.5619 3.58369C14.5685 3.57721 14.5518 3.55028 14.5248 3.52388C14.4977 3.49748 14.4701 3.48128 14.4633 3.48788C14.4468 3.50414 14.2714 3.331 14.2504 3.2776C14.2405 3.25234 14.2187 3.24052 14.197 3.24868C14.1768 3.25624 14.1604 3.25132 14.1604 3.23776C14.1604 3.22421 14.1505 3.21905 14.1384 3.22637C14.1167 3.23944 14.0751 3.17321 14.0827 3.13793C14.0849 3.12803 14.0764 3.11994 14.0639 3.11994C14.0513 3.11994 14.0375 3.10338 14.0332 3.08316C14.0269 3.05418 14.0184 3.05706 13.9932 3.09678ZM16.2978 3.30394C16.2978 3.32152 16.3061 3.33418 16.3163 3.33202C16.3488 3.32518 16.4586 3.37773 16.4906 3.41553C16.5173 3.44684 16.5136 3.45044 16.4651 3.44025C16.4119 3.42909 16.4111 3.43053 16.4525 3.46358C16.5645 3.55291 16.5917 3.47768 16.4851 3.37359C16.3823 3.27316 16.2978 3.24172 16.2978 3.30394ZM16.6394 3.57259C16.6669 3.61039 16.6818 3.64873 16.6725 3.65785C16.6632 3.66696 16.6737 3.66762 16.696 3.65929C16.7392 3.64309 16.8017 3.72372 16.7699 3.75474C16.7603 3.76416 16.7634 3.76925 16.7769 3.76607C16.8257 3.75456 16.8875 3.79799 16.8875 3.84383C16.8875 3.86963 16.8986 3.88396 16.9122 3.87574C16.9258 3.86753 16.9432 3.87688 16.951 3.8965C16.9587 3.91612 16.9802 3.93784 16.9987 3.9448C17.022 3.95356 17.0277 3.94492 17.0172 3.91666C16.9891 3.84119 17.1123 3.96466 17.1484 4.04823C17.1829 4.12772 17.2314 4.17428 17.2314 4.12784C17.2314 4.11308 17.2414 4.10708 17.2537 4.11446C17.2659 4.12184 17.2702 4.1495 17.2631 4.17584C17.2532 4.21267 17.2624 4.22383 17.3023 4.22383C17.3321 4.22383 17.3543 4.23919 17.3543 4.25983C17.3543 4.27963 17.363 4.29313 17.3736 4.28983C17.3942 4.28347 17.5263 4.40339 17.5263 4.42841C17.5263 4.43657 17.5428 4.45943 17.5631 4.47923C17.5834 4.49903 17.6 4.50773 17.6 4.49861C17.6 4.48943 17.6148 4.49399 17.6329 4.50869C17.6511 4.52338 17.675 4.5274 17.686 4.51762C17.697 4.50779 17.6991 4.5187 17.6906 4.5418C17.6766 4.58008 17.6956 4.59058 17.763 4.58176C17.7717 4.58062 17.7881 4.59412 17.7995 4.61176C17.8122 4.63137 17.8205 4.63323 17.8207 4.61655C17.8209 4.60156 17.7936 4.57168 17.7599 4.55014C17.7262 4.5286 17.6499 4.46333 17.5903 4.40507C17.5307 4.34682 17.4753 4.30566 17.4672 4.31352C17.4591 4.32138 17.4525 4.31406 17.4525 4.29733C17.4525 4.25095 16.6624 3.5039 16.6134 3.5039C16.6001 3.5039 16.6118 3.5348 16.6394 3.57259ZM14.8112 3.81611C14.803 3.82919 14.8092 3.83987 14.8249 3.83987C14.8432 3.83987 14.848 3.86153 14.8382 3.89986C14.8228 3.9598 14.8599 3.98661 14.8797 3.92986C14.8855 3.91336 14.8859 3.92524 14.8805 3.9562C14.8738 3.99453 14.8808 4.00917 14.9025 4.00197C14.9203 3.99603 14.9305 3.96592 14.9257 3.93364C14.9157 3.86555 14.8334 3.78107 14.8112 3.81611ZM14.9466 4.00785C14.9271 4.01961 14.9193 4.03719 14.9292 4.04697C14.9392 4.05669 14.9602 4.05207 14.976 4.03665C15.0131 4.00041 14.9924 3.98014 14.9466 4.00785ZM14.9824 4.05747C14.9735 4.07151 14.9701 4.08567 14.9748 4.08878C15.0449 4.13588 15.2086 4.26433 15.2216 4.28251C15.2311 4.29571 15.2476 4.2972 15.2584 4.28587C15.2693 4.27453 15.2644 4.26043 15.2475 4.25455C15.2306 4.24867 15.2168 4.22983 15.2168 4.21279C15.2168 4.19569 15.1981 4.1669 15.1752 4.14878C15.1398 4.1207 15.1368 4.12082 15.1545 4.14956C15.169 4.17314 15.1662 4.17782 15.1453 4.1651C15.1287 4.15514 15.1217 4.13036 15.1297 4.11002C15.1411 4.08105 15.137 4.07895 15.1107 4.10024C15.0708 4.13258 15.0429 4.11284 15.0614 4.06551C15.0769 4.02597 15.0068 4.01883 14.9824 4.05747ZM15.2763 4.29883C15.2675 4.31268 15.339 4.39866 15.435 4.48991C15.5996 4.64625 15.6598 4.69137 15.6199 4.62807C15.6089 4.6108 15.6131 4.6069 15.6311 4.61776C15.6469 4.62729 15.6535 4.64505 15.6458 4.65723C15.6164 4.70379 15.7504 4.80086 15.8112 4.77704C15.8424 4.7648 15.8536 4.75412 15.8361 4.75328C15.7845 4.75082 15.6532 4.63647 15.6705 4.60906C15.6771 4.59862 15.6579 4.59142 15.6278 4.59298C15.5898 4.59496 15.5741 4.58296 15.5765 4.5538C15.5786 4.52746 15.5626 4.5118 15.5335 4.5118C15.5078 4.5118 15.4871 4.49507 15.4871 4.47437C15.4871 4.45379 15.4772 4.44293 15.4651 4.45025C15.453 4.45757 15.4365 4.44683 15.4285 4.42643C15.4196 4.40376 15.4241 4.39548 15.44 4.40507C15.4544 4.41377 15.4521 4.3989 15.4349 4.37202C15.3945 4.30878 15.2982 4.26433 15.2763 4.29883ZM17.8359 4.66989C17.8149 4.7234 17.8166 4.72778 17.8579 4.72778C17.8912 4.72778 17.9057 4.75628 17.8977 4.80578C17.8961 4.81568 17.9031 4.82252 17.9132 4.82096C17.9675 4.81256 18.0176 4.82708 18.0176 4.85119C18.0176 4.86625 18.0507 4.90951 18.0912 4.9473C18.1317 4.98504 18.1676 5.02404 18.1711 5.03388C18.1745 5.04371 18.1903 5.05187 18.2063 5.05205C18.2456 5.05247 18.2657 5.07491 18.2736 5.12723C18.2793 5.16568 18.4107 5.20558 18.4107 5.1688C18.4107 5.09615 17.8572 4.61572 17.8359 4.66989ZM15.8561 4.83511C15.822 4.87531 15.8289 4.88395 15.9934 5.00946C16.0489 5.05181 16.1015 5.07953 16.1101 5.07113C16.1188 5.06267 16.1258 5.06885 16.1258 5.08487C16.1258 5.11349 16.2337 5.23174 16.2599 5.23174C16.2845 5.23174 16.2736 5.11181 16.2487 5.10875C16.2352 5.10713 16.2139 5.10443 16.2013 5.10275C16.1888 5.10113 16.1383 5.05655 16.0891 5.00376C16.0399 4.95096 16.0076 4.92295 16.0174 4.94148C16.0295 4.9644 16.0255 4.96938 16.0052 4.95702C15.9886 4.94706 15.9806 4.92469 15.9875 4.90735C15.9943 4.88995 15.984 4.86979 15.9646 4.86253C15.9452 4.85521 15.9293 4.86037 15.9293 4.87393C15.9293 4.88749 15.9187 4.89223 15.9058 4.88443C15.8929 4.87663 15.8885 4.85437 15.8961 4.83499C15.9139 4.78982 15.8946 4.78988 15.8561 4.83511ZM16.2996 5.24164C16.2721 5.27403 16.6388 5.6397 16.6988 5.6397C16.7132 5.6397 16.7045 5.62512 16.6796 5.60736C16.6547 5.58954 16.6414 5.56375 16.65 5.55007C16.6642 5.52775 16.5974 5.45102 16.5766 5.46571C16.5425 5.48977 16.5171 5.46679 16.5435 5.43572C16.5694 5.40524 16.564 5.39972 16.5082 5.39972C16.4702 5.39972 16.4488 5.38946 16.4576 5.37554C16.4661 5.36228 16.4564 5.34519 16.4361 5.33757C16.4158 5.32995 16.4041 5.31111 16.4102 5.29569C16.4282 5.24986 16.3324 5.203 16.2996 5.24164ZM18.3973 5.27373C18.4497 5.36714 18.4982 5.42372 18.526 5.42372C18.5392 5.42372 18.55 5.40482 18.55 5.38172C18.55 5.33895 18.4241 5.20774 18.3829 5.20774C18.3705 5.20774 18.3769 5.23744 18.3973 5.27373ZM18.5827 5.4566C18.5827 5.49607 18.6268 5.53261 18.6487 5.51125C18.6562 5.50399 18.6444 5.48053 18.6225 5.45912C18.5881 5.42558 18.5827 5.42522 18.5827 5.4566ZM18.6257 5.55961C18.6426 5.56627 18.6564 5.59242 18.6564 5.61768C18.6564 5.643 18.6681 5.6637 18.6825 5.6637C18.6968 5.6637 18.7016 5.6745 18.6933 5.68769C18.6849 5.70089 18.6953 5.71169 18.7164 5.71169C18.7652 5.71169 18.7664 5.66658 18.718 5.64846C18.6978 5.64084 18.6882 5.6238 18.6966 5.61048C18.7125 5.58534 18.6623 5.54329 18.6196 5.54599C18.606 5.54683 18.6088 5.55295 18.6257 5.55961ZM18.7291 5.78195C18.7431 5.80738 18.7477 5.8456 18.7393 5.8669C18.7309 5.8882 18.7337 5.90391 18.7455 5.90181C18.8044 5.89132 18.823 5.90985 18.8185 5.97417C18.8157 6.01292 18.8224 6.03926 18.8332 6.03272C18.8441 6.02618 18.8538 6.03494 18.8549 6.05222C18.8558 6.0695 18.8622 6.10525 18.869 6.13165C18.8758 6.15805 18.8839 6.21744 18.8869 6.26364C18.8899 6.30984 18.9139 6.37961 18.9402 6.41873C18.9666 6.45778 18.9754 6.48214 18.96 6.47284C18.9445 6.46354 18.9256 6.4717 18.918 6.49096C18.9104 6.51028 18.9143 6.53217 18.9267 6.53961C18.939 6.54705 18.9429 6.56901 18.9353 6.58839C18.9276 6.60777 18.9329 6.62361 18.947 6.62361C18.9611 6.62361 18.9675 6.6506 18.9614 6.6836C18.9553 6.7166 18.9606 6.74359 18.9732 6.74359C18.9858 6.74359 18.9957 6.65654 18.9952 6.55017C18.9946 6.41537 18.9858 6.35993 18.9663 6.36725C18.9472 6.37439 18.9412 6.34709 18.9475 6.28266C18.9526 6.23028 18.9445 6.17545 18.9294 6.16075C18.9144 6.14605 18.9021 6.09842 18.9021 6.05486C18.9021 6.0113 18.891 5.97567 18.8775 5.97567C18.864 5.97567 18.853 5.95473 18.853 5.92911C18.853 5.90349 18.8419 5.87584 18.8284 5.86768C18.8149 5.85952 18.8038 5.82646 18.8038 5.79424C18.8038 5.75135 18.7904 5.73569 18.7538 5.73569C18.7121 5.73569 18.708 5.74331 18.7291 5.78195ZM11.5561 6.03134C11.5561 6.06272 11.6377 6.19165 11.6576 6.19165C11.6709 6.19165 11.6743 6.17965 11.6649 6.16495C11.6556 6.15031 11.6622 6.12979 11.6794 6.11941C11.7014 6.10609 11.6878 6.089 11.6334 6.06146C11.5909 6.03998 11.5561 6.02642 11.5561 6.03134ZM11.7035 6.31655C11.7035 6.33443 11.7256 6.36461 11.7526 6.38363C11.7797 6.40265 11.8018 6.42688 11.8018 6.43744C11.8018 6.448 11.8623 6.5158 11.9363 6.58815C12.0704 6.719 12.1949 6.76573 12.1949 6.68516C12.1949 6.66152 12.1756 6.6542 12.1329 6.66176C12.0922 6.66896 12.066 6.6602 12.0565 6.63614C12.0487 6.61605 12.0261 6.59961 12.0063 6.59961C11.9822 6.59961 11.9753 6.58461 11.9853 6.55389C12.0002 6.50824 11.8752 6.39191 11.844 6.42238C11.8298 6.43624 11.7647 6.33281 11.7744 6.31164C11.7773 6.30504 11.7626 6.29616 11.7416 6.2919C11.7207 6.28764 11.7035 6.29874 11.7035 6.31655ZM12.1949 6.76759C12.1949 6.79399 12.2104 6.81559 12.2294 6.81559C12.2519 6.81559 12.2595 6.79879 12.2511 6.76759C12.2441 6.7412 12.2285 6.7196 12.2166 6.7196C12.2046 6.7196 12.1949 6.7412 12.1949 6.76759ZM12.2871 6.82117C12.2768 6.85152 12.3885 6.92238 12.4114 6.9C12.4184 6.89316 12.4094 6.88758 12.3914 6.88758C12.3734 6.88758 12.3659 6.8805 12.3748 6.8718C12.3928 6.85422 12.3474 6.79159 12.3167 6.79159C12.306 6.79159 12.2927 6.80491 12.2871 6.82117ZM12.4652 6.91152C12.4439 6.92442 12.4431 6.93426 12.4625 6.94602C12.4775 6.95501 12.5008 6.95567 12.5144 6.94746C12.528 6.93924 12.5458 6.94944 12.5539 6.97007C12.5714 7.01447 12.6861 7.02101 12.6866 6.97757C12.6869 6.95585 12.6929 6.95669 12.7084 6.98063C12.7202 6.99881 12.7421 7.00637 12.7569 6.99737C12.7739 6.98711 12.7785 6.99491 12.7693 7.01831C12.758 7.04705 12.7721 7.05557 12.831 7.05557C12.9167 7.05557 12.9238 7.04417 12.8705 6.99215C12.8421 6.96437 12.8335 6.96341 12.8329 6.98783C12.8323 7.01165 12.8246 7.01051 12.8021 6.98309C12.7857 6.96305 12.7418 6.94734 12.7047 6.94824C12.6675 6.94908 12.6371 6.9384 12.6371 6.92442C12.6371 6.89478 12.509 6.88512 12.4652 6.91152ZM17.5077 14.2235C17.5037 18.9778 17.4934 21.4084 17.4771 21.4182C17.4636 21.4264 17.4525 21.4966 17.4525 21.5742C17.4525 21.6518 17.4409 21.7223 17.4268 21.7309C17.409 21.7416 17.4095 21.7565 17.4283 21.7787C17.4494 21.8034 17.4435 21.8172 17.4029 21.8385C17.3739 21.8537 17.3562 21.8721 17.3637 21.8794C17.3712 21.8868 17.3556 21.9226 17.329 21.9592C17.3024 21.9957 17.2806 22.0367 17.2806 22.0503C17.2806 22.0639 17.2198 22.1344 17.1454 22.207C16.9908 22.3581 16.9879 22.3637 17.0731 22.3477C17.1096 22.3409 17.1311 22.3236 17.1244 22.3066C17.1113 22.273 17.1911 22.1981 17.24 22.1981C17.258 22.1981 17.2853 22.1711 17.3007 22.1381C17.3161 22.1051 17.3413 22.0782 17.3566 22.0782C17.3732 22.0782 17.3798 22.0537 17.3728 22.0182C17.365 21.9779 17.3721 21.9582 17.3945 21.9582C17.4129 21.9582 17.428 21.9366 17.428 21.9102C17.428 21.8838 17.4397 21.8622 17.454 21.8622C17.4683 21.8622 17.4732 21.8514 17.4648 21.8382C17.4565 21.825 17.4641 21.814 17.4818 21.8138C17.5052 21.8135 17.5039 21.8071 17.4771 21.7902C17.4565 21.7772 17.4528 21.7668 17.4687 21.7665C17.485 21.7664 17.4916 21.7456 17.4841 21.7178C17.4736 21.6785 17.4798 21.6727 17.5171 21.6867C17.5619 21.7034 17.5618 21.7022 17.517 21.6353C17.4852 21.5879 17.4814 21.5707 17.5048 21.5794C17.5292 21.5886 17.5385 21.5703 17.5385 21.5134C17.5385 21.4702 17.533 21.4381 17.5263 21.4422C17.5195 21.4463 17.5168 19.1316 17.5202 16.2984C17.5237 13.4652 17.5237 10.2239 17.5201 9.09537C17.5166 7.96688 17.511 10.2745 17.5077 14.2235ZM3.89068 9.38455C3.89068 9.39552 3.90174 9.41118 3.91525 9.41934C3.92877 9.4275 3.93982 9.42336 3.93982 9.41016C3.93982 9.3969 3.96009 9.38995 3.98491 9.39457C4.00972 9.39924 4.04276 9.39534 4.05843 9.38593C4.07403 9.37645 4.0427 9.36781 3.98877 9.36667C3.93485 9.36547 3.89068 9.37351 3.89068 9.38455ZM15.0085 9.41682C15.0432 9.46854 15.1252 9.51275 15.1738 9.50591C15.1839 9.50447 15.1922 9.51953 15.1922 9.53933C15.1922 9.58259 15.2405 9.58823 15.2436 9.54533C15.2448 9.52883 15.2563 9.55079 15.2691 9.59417C15.2819 9.63754 15.3019 9.6673 15.3134 9.66034C15.3359 9.64678 15.3745 9.71451 15.3681 9.75639C15.3661 9.77019 15.3864 9.82358 15.4132 9.87506C15.4401 9.92659 15.4524 9.97465 15.4404 9.98197C15.4285 9.98929 15.4325 10.0077 15.4493 10.0229C15.4907 10.0604 15.4958 9.91496 15.4549 9.8654C15.432 9.83774 15.4323 9.83402 15.4563 9.84812C15.4757 9.85946 15.4871 9.85226 15.4871 9.82874C15.4871 9.80817 15.476 9.79131 15.4625 9.79131C15.449 9.79131 15.4379 9.77091 15.4379 9.74601C15.4379 9.68056 15.2053 9.44532 15.158 9.46308C15.1371 9.47088 15.1125 9.46524 15.1032 9.4506C15.093 9.43446 15.0976 9.43068 15.1147 9.44106C15.1303 9.45048 15.1431 9.44676 15.1431 9.43278C15.1431 9.4188 15.121 9.40734 15.094 9.40734C15.0669 9.40734 15.0448 9.39654 15.0448 9.38335C15.0448 9.37015 15.028 9.35935 15.0074 9.35935C14.9742 9.35935 14.9743 9.36583 15.0085 9.41682ZM3.79241 9.44736C3.79241 9.46932 3.78572 9.48078 3.77748 9.4728C3.74659 9.44256 3.49759 9.68548 3.49759 9.74577C3.49759 9.76929 3.48653 9.79515 3.47302 9.80331C3.43825 9.8243 3.44249 9.90494 3.47916 9.9194C3.50373 9.92905 3.50373 9.93187 3.47916 9.93337C3.46227 9.93445 3.44863 9.95959 3.44882 9.98929C3.44919 10.0423 3.44974 10.0422 3.48168 9.98329C3.50539 9.93943 3.50698 9.914 3.48745 9.88868C3.46761 9.863 3.46823 9.8585 3.48973 9.8711C3.5057 9.88046 3.52572 9.8771 3.53419 9.86372C3.54267 9.85028 3.53794 9.8393 3.52363 9.8393C3.50932 9.8393 3.49759 9.8285 3.49759 9.81531C3.49759 9.80211 3.51313 9.79131 3.53217 9.79131C3.55299 9.79131 3.5622 9.77463 3.55545 9.74925C3.54789 9.72099 3.56902 9.6928 3.61957 9.66364C3.66171 9.63934 3.68769 9.60856 3.67847 9.59399C3.66858 9.57839 3.67338 9.57479 3.69051 9.58517C3.70648 9.59477 3.72552 9.58589 3.73375 9.56501C3.7418 9.54443 3.75722 9.53291 3.76803 9.53945C3.77877 9.54593 3.79917 9.51887 3.81329 9.47934C3.82889 9.4356 3.82982 9.40734 3.81569 9.40734C3.80291 9.40734 3.79241 9.42534 3.79241 9.44736ZM3.44845 10.2338C3.44845 10.2924 3.45951 10.3471 3.47302 10.3553C3.48653 10.3634 3.49759 10.3885 3.49759 10.411C3.49759 10.4334 3.52504 10.472 3.55852 10.4965C3.59205 10.5211 3.61386 10.5502 3.60698 10.561C3.6001 10.572 3.61607 10.5921 3.64242 10.6059C3.66877 10.6196 3.70992 10.6499 3.73381 10.673C3.7754 10.7133 3.77656 10.7132 3.76035 10.6712C3.75095 10.6471 3.74327 10.6174 3.74327 10.6053C3.74327 10.5931 3.727 10.5832 3.70703 10.5832C3.68713 10.5832 3.65366 10.5508 3.63271 10.5112C3.61177 10.4716 3.60121 10.4392 3.60925 10.4392C3.61736 10.4392 3.60735 10.423 3.58708 10.4032C3.56681 10.3835 3.53837 10.3673 3.52394 10.3673C3.49783 10.3673 3.48917 10.3209 3.49138 10.1933C3.492 10.157 3.4826 10.1273 3.47044 10.1273C3.45834 10.1273 3.44845 10.1752 3.44845 10.2338ZM15.4294 10.2975C15.4052 10.3251 15.3837 10.3692 15.3817 10.3955C15.3797 10.4217 15.3593 10.4529 15.3365 10.4649C15.3101 10.4787 15.2997 10.5043 15.308 10.5353C15.3185 10.5744 15.3119 10.5811 15.275 10.5693C15.2371 10.5573 15.2355 10.5592 15.2659 10.5806C15.3015 10.6056 15.2968 10.609 15.2168 10.616C15.1965 10.6178 15.182 10.6308 15.1846 10.645C15.1872 10.6591 15.1651 10.6699 15.1355 10.669C15.1058 10.668 15.0843 10.6802 15.0875 10.6964C15.0909 10.7131 15.0779 10.7197 15.057 10.7119C15.0365 10.7042 15.0142 10.7148 15.0057 10.7363C14.9942 10.7655 14.98 10.7687 14.9441 10.75C14.9092 10.7317 14.8974 10.7335 14.8974 10.7572C14.8974 10.7944 15.011 10.8092 15.0328 10.7749C15.041 10.7618 15.0692 10.7512 15.0954 10.7512C15.1217 10.7512 15.1431 10.7404 15.1431 10.7272C15.1431 10.714 15.1543 10.7032 15.1679 10.7032C15.2064 10.7032 15.3396 10.5791 15.3396 10.5433C15.3396 10.5256 15.3514 10.5112 15.3657 10.5112C15.38 10.5112 15.3849 10.5004 15.3765 10.4872C15.3681 10.474 15.3792 10.4632 15.4011 10.4632C15.4229 10.4632 15.4336 10.4518 15.4247 10.4377C15.4158 10.4237 15.4247 10.394 15.4446 10.3718C15.4643 10.3495 15.4802 10.3124 15.4797 10.2893C15.4787 10.2377 15.4823 10.2371 15.4294 10.2975ZM3.79241 10.7003C3.79241 10.7347 3.80789 10.7512 3.84007 10.7512C3.8663 10.7512 3.89462 10.762 3.90297 10.7752C3.9225 10.8061 4.06266 10.8067 4.06266 10.7758C4.06266 10.7438 3.93491 10.6832 3.89603 10.6968C3.87865 10.7028 3.84824 10.6946 3.82846 10.6786C3.79868 10.6544 3.79241 10.6582 3.79241 10.7003ZM4.09927 10.7516C4.07679 10.7872 4.0981 10.8053 4.15056 10.7953C4.18895 10.788 4.18938 10.7842 4.15467 10.7561C4.12703 10.7337 4.11137 10.7324 4.09927 10.7516ZM14.8237 10.7491C14.8237 10.7626 14.8071 10.7675 14.7869 10.7599C14.7666 10.7523 14.75 10.7557 14.75 10.7674C14.75 10.7792 14.7776 10.791 14.8114 10.7937C14.873 10.7987 14.8943 10.7671 14.8483 10.7392C14.8348 10.7311 14.8237 10.7355 14.8237 10.7491ZM14.7575 13.1184C14.7799 13.1402 14.9688 13.1427 14.9551 13.121C14.9488 13.1111 14.8982 13.103 14.8427 13.103C14.7872 13.103 14.7489 13.1099 14.7575 13.1184ZM14.9974 13.121C15.0017 13.1659 15.0414 13.2332 15.0435 13.199C15.0452 13.1692 15.0492 13.1686 15.067 13.196C15.0788 13.2142 15.1008 13.2217 15.1158 13.2127C15.1597 13.1861 15.1473 13.151 15.094 13.151C15.0669 13.151 15.0448 13.1402 15.0448 13.127C15.0448 13.1138 15.0338 13.103 15.0203 13.103C15.0067 13.103 14.9965 13.1111 14.9974 13.121ZM3.76784 13.1955C3.74757 13.2197 3.70059 13.2586 3.66343 13.282C3.62627 13.3054 3.59586 13.3371 3.59586 13.3525C3.59586 13.3678 3.57375 13.3959 3.54672 13.415C3.5197 13.434 3.49759 13.4681 3.49759 13.4909C3.49759 13.5135 3.48653 13.5388 3.47302 13.547C3.45951 13.5551 3.44937 13.6125 3.45054 13.6744C3.4525 13.7772 3.45453 13.7809 3.47406 13.717C3.48586 13.6785 3.48942 13.6375 3.48199 13.6257C3.47455 13.614 3.48991 13.5861 3.51607 13.5637C3.54218 13.5413 3.55839 13.508 3.55195 13.4896C3.54402 13.4668 3.55102 13.4623 3.57424 13.4754C3.59291 13.486 3.60004 13.4859 3.59015 13.4753C3.58026 13.4646 3.5958 13.4358 3.62461 13.4114C3.65642 13.3845 3.66428 13.367 3.64469 13.367C3.61318 13.367 3.63265 13.3322 3.66545 13.3298C3.73179 13.325 3.79241 13.2847 3.79241 13.2454C3.79241 13.2199 3.80899 13.199 3.82926 13.199C3.84953 13.199 3.86612 13.1882 3.86612 13.175C3.86612 13.1359 3.80758 13.1482 3.76784 13.1955ZM15.1431 13.2247C15.1431 13.2525 15.2035 13.319 15.2288 13.319C15.2373 13.319 15.236 13.3055 15.2258 13.289C15.2123 13.267 15.218 13.2674 15.2472 13.2905C15.2691 13.3079 15.283 13.3427 15.278 13.368C15.2731 13.3933 15.2811 13.4213 15.2958 13.4301C15.3129 13.4405 15.3156 13.4351 15.3032 13.4156C15.2901 13.3949 15.2949 13.3887 15.3178 13.3968C15.3366 13.4035 15.3489 13.4219 15.3452 13.4378C15.3415 13.4536 15.3496 13.4598 15.3632 13.4516C15.379 13.442 15.3825 13.4636 15.3728 13.5108C15.3614 13.5668 15.366 13.5834 15.3916 13.578C15.4127 13.5737 15.4228 13.5876 15.418 13.6147C15.4138 13.6388 15.4234 13.6739 15.4395 13.6927C15.4602 13.7172 15.4606 13.7269 15.4409 13.7269C15.4258 13.7269 15.4134 13.7377 15.4134 13.7509C15.4134 13.7641 15.4299 13.7749 15.4502 13.7749C15.478 13.7749 15.4871 13.7456 15.4871 13.6549C15.4871 13.589 15.476 13.535 15.4625 13.535C15.449 13.535 15.4379 13.5159 15.4379 13.4927C15.4379 13.4694 15.4105 13.4302 15.377 13.4057C15.3435 13.3811 15.321 13.353 15.3271 13.3433C15.3403 13.3226 15.2039 13.199 15.1679 13.199C15.1543 13.199 15.1431 13.2106 15.1431 13.2247ZM15.4348 13.8875C15.4162 13.9099 15.414 13.9206 15.4297 13.9114C15.4454 13.9022 15.4639 13.9082 15.4707 13.9248C15.4776 13.9414 15.4841 13.9306 15.4851 13.9009C15.4874 13.8362 15.4792 13.8341 15.4348 13.8875ZM15.4476 14.039C15.4462 14.0785 15.4544 14.1109 15.466 14.1109C15.4776 14.1109 15.4871 14.0785 15.4871 14.0389C15.4871 13.945 15.451 13.9451 15.4476 14.039ZM3.44845 14.0757C3.44845 14.1145 3.48684 14.1233 3.50827 14.0894C3.51577 14.0776 3.50533 14.0618 3.48518 14.0541C3.46288 14.0458 3.44845 14.0543 3.44845 14.0757ZM15.3642 14.1452C15.3642 14.2221 15.3139 14.3029 15.2659 14.3029C15.2267 14.3029 15.1648 14.3809 15.1777 14.414C15.1933 14.4535 15.1532 14.4583 15.1289 14.4198C15.1172 14.4014 15.1043 14.4057 15.0886 14.4331C15.0714 14.4631 15.0572 14.4668 15.0334 14.4476C15.0098 14.4285 14.9978 14.4309 14.9876 14.4567C14.9801 14.476 14.9871 14.497 15.0032 14.5034C15.0193 14.5098 14.992 14.5159 14.9424 14.5169C14.8929 14.518 14.8487 14.5088 14.8442 14.4965C14.8397 14.4842 14.8146 14.4896 14.7883 14.5085C14.7451 14.5396 14.755 14.5429 14.8927 14.5429C14.9778 14.5429 15.0448 14.5323 15.0448 14.5189C15.0448 14.5057 15.0635 14.4949 15.0863 14.4949C15.1468 14.4949 15.2924 14.3918 15.2795 14.3581C15.2729 14.3409 15.2828 14.3347 15.304 14.3427C15.3246 14.3503 15.3396 14.3419 15.3396 14.3227C15.3396 14.3044 15.3618 14.2739 15.3888 14.2549C15.4387 14.2197 15.4499 14.1693 15.423 14.1009C15.3971 14.0349 15.3642 14.0597 15.3642 14.1452ZM3.50262 14.1649C3.50723 14.1946 3.52541 14.216 3.54298 14.2123C3.56054 14.2087 3.56779 14.217 3.55901 14.2309C3.5412 14.259 3.69764 14.4229 3.74229 14.4229C3.75795 14.4229 3.76385 14.4338 3.75537 14.4472C3.74684 14.4607 3.77368 14.478 3.81587 14.4862C3.85758 14.4944 3.89769 14.5105 3.90493 14.522C3.9287 14.5595 3.96328 14.5439 3.94713 14.5029C3.93577 14.4739 3.94037 14.4683 3.96402 14.4826C3.98564 14.4957 3.99068 14.493 3.97901 14.4746C3.96937 14.4593 3.944 14.4469 3.92262 14.4469C3.90131 14.4469 3.86913 14.428 3.85119 14.4049C3.82048 14.3653 3.81851 14.3656 3.81778 14.4094C3.81698 14.4554 3.81649 14.4554 3.76901 14.4094C3.74266 14.3838 3.70409 14.3491 3.68333 14.3322C3.66257 14.3153 3.63806 14.2722 3.62885 14.2365C3.59912 14.1207 3.48567 14.0564 3.50262 14.1649ZM4.10111 14.4974C4.11248 14.5153 4.10087 14.5187 4.06574 14.5078C4.03478 14.4982 4.01353 14.5021 4.01353 14.5172C4.01353 14.5313 4.05185 14.5429 4.09872 14.5429C4.16438 14.5429 4.18072 14.5346 4.16985 14.5069C4.16205 14.4871 4.13963 14.4709 4.12003 14.4709C4.10019 14.4709 4.09178 14.4827 4.10111 14.4974ZM3.90199 16.8723C3.89308 16.8863 3.88964 16.9015 3.89437 16.9061C3.91126 16.9224 4.0381 16.8886 4.0381 16.8678C4.0381 16.8377 3.9214 16.8415 3.90199 16.8723ZM7.72836 16.8885C7.74673 16.9101 7.79046 16.9197 7.8466 16.9145C7.90734 16.9089 7.95034 16.9197 7.9816 16.9487C8.00967 16.9747 8.03627 16.9826 8.05015 16.969C8.08074 16.9392 8.04603 16.8883 8.00549 16.9035C7.98768 16.9102 7.96698 16.8999 7.95943 16.8807C7.9496 16.8556 7.91072 16.8469 7.82246 16.85C7.71872 16.8535 7.70385 16.8597 7.72836 16.8885ZM3.65114 17.0497C3.56669 17.1338 3.49759 17.219 3.49759 17.2391C3.49759 17.2593 3.48721 17.282 3.47455 17.2897C3.4619 17.2973 3.45281 17.3763 3.45441 17.4651C3.45607 17.5539 3.46184 17.5942 3.46737 17.5546C3.47283 17.515 3.48794 17.4701 3.50084 17.4549C3.51374 17.4396 3.51743 17.4006 3.50907 17.3681C3.49826 17.3261 3.50545 17.3048 3.53419 17.294C3.55631 17.2857 3.56755 17.268 3.55913 17.2548C3.55072 17.2415 3.55981 17.2306 3.5794 17.2306C3.59893 17.2306 3.61343 17.2117 3.61159 17.1886C3.60968 17.1655 3.6216 17.1492 3.638 17.1523C3.65458 17.1555 3.66189 17.143 3.65452 17.1242C3.64015 17.0877 3.72964 17.0276 3.76575 17.0494C3.77761 17.0565 3.79358 17.0462 3.80138 17.0265C3.80912 17.0068 3.80199 16.9905 3.78547 16.9903C3.766 16.99 3.76796 16.9822 3.79124 16.9678C3.81084 16.9557 3.83387 16.95 3.84241 16.9552C3.85094 16.9603 3.85795 16.9488 3.85795 16.9296C3.85795 16.8655 3.80598 16.8957 3.65114 17.0497ZM8.0999 16.9584C8.10881 16.9671 8.105 16.9872 8.09148 17.0031C8.07312 17.0247 8.08227 17.0292 8.1276 17.0207C8.18503 17.01 8.16279 16.9426 8.10186 16.9426C8.09191 16.9426 8.09099 16.9497 8.0999 16.9584ZM8.14105 17.0761C8.14105 17.0966 8.15284 17.1063 8.16728 17.0976C8.18171 17.0889 8.19934 17.1037 8.20653 17.1305C8.22532 17.2006 8.28613 17.2174 8.28158 17.1512C8.27507 17.057 8.14105 16.9853 8.14105 17.0761ZM8.3032 17.1682C8.31045 17.1866 8.30492 17.2087 8.29098 17.2171C8.26445 17.2331 8.33084 17.3986 8.36377 17.3986C8.37322 17.3986 8.37789 17.4769 8.37421 17.5726C8.36585 17.791 8.36635 17.7879 8.34116 17.7727C8.32961 17.7657 8.32568 17.7883 8.33244 17.8229C8.34018 17.8625 8.33533 17.88 8.31936 17.8704C8.30548 17.862 8.28846 17.876 8.28158 17.9016C8.2747 17.9273 8.28177 17.9533 8.29719 17.9595C8.31659 17.9672 8.31573 17.9714 8.29461 17.9726C8.24534 17.9757 8.16372 18.0655 8.19787 18.0791C8.21408 18.0856 8.20868 18.0916 8.18571 18.0926C8.16298 18.0937 8.1381 18.1137 8.13049 18.1372C8.11593 18.182 7.98744 18.246 7.91379 18.2452C7.89014 18.245 7.8708 18.2555 7.8708 18.2686C7.8708 18.2828 7.85765 18.2817 7.83781 18.2656C7.80526 18.2392 7.77252 18.2517 7.77252 18.2905C7.77252 18.3295 7.91674 18.3098 8.02153 18.2565C8.14646 18.193 8.3376 18.0156 8.3376 17.9632C8.3376 17.943 8.34866 17.9265 8.36217 17.9265C8.37568 17.9265 8.38674 17.9049 8.38674 17.8785C8.38674 17.8521 8.39779 17.8306 8.41131 17.8306C8.44724 17.8306 8.44159 17.6448 8.40516 17.6305C8.3806 17.6208 8.3806 17.618 8.40516 17.6165C8.44275 17.6142 8.44883 17.3266 8.41131 17.3266C8.39779 17.3266 8.38545 17.3023 8.38391 17.2726C8.38176 17.232 8.37826 17.229 8.36978 17.2606C8.34902 17.3384 8.31598 17.3034 8.33004 17.2186C8.33895 17.1653 8.33416 17.1346 8.31702 17.1346C8.30216 17.1346 8.29596 17.1497 8.3032 17.1682ZM3.45293 17.7569C3.45214 17.8101 3.4619 17.8598 3.47455 17.8675C3.48721 17.8751 3.49759 17.8977 3.49759 17.9177C3.49759 17.9658 3.56447 18.0295 3.59537 18.0108C3.60894 18.0027 3.61398 18.011 3.60673 18.0294C3.59899 18.0491 3.63677 18.0997 3.69844 18.1525C3.8612 18.292 4.06266 18.3578 4.06266 18.2717C4.06266 18.2443 4.04774 18.2367 4.01205 18.2458C3.98104 18.2538 3.95616 18.2455 3.94799 18.2247C3.94001 18.2044 3.90063 18.1905 3.85119 18.1905C3.80537 18.1905 3.76784 18.1797 3.76784 18.1665C3.76784 18.1533 3.78074 18.1425 3.79653 18.1425C3.84345 18.1425 3.7956 18.1099 3.73652 18.1016C3.63136 18.0869 3.6122 18.0731 3.64426 18.0354C3.66803 18.0074 3.65624 17.9839 3.58186 17.9112C3.52664 17.8573 3.48665 17.7931 3.48156 17.7501C3.46884 17.6437 3.45447 17.6471 3.45293 17.7569ZM4.08723 18.2745C4.08723 18.2943 4.10898 18.3105 4.13557 18.3105C4.16849 18.3105 4.17943 18.299 4.16985 18.2745C4.16205 18.2547 4.1403 18.2385 4.12145 18.2385C4.10265 18.2385 4.08723 18.2547 4.08723 18.2745ZM0.234571 21.6511C0.232544 21.7971 0.241328 21.9142 0.255025 21.9225C0.268292 21.9304 0.279102 21.9789 0.279102 22.0302C0.279102 22.0814 0.290158 22.13 0.30367 22.1381C0.317183 22.1463 0.328239 22.1848 0.328239 22.2236C0.328239 22.2624 0.339295 22.2941 0.352808 22.2941C0.36632 22.2941 0.377376 22.3211 0.377376 22.3541C0.377376 22.3871 0.388432 22.4141 0.401945 22.4141C0.415457 22.4141 0.426513 22.4357 0.426513 22.4621C0.426513 22.4929 0.442913 22.5101 0.472272 22.5101C0.507774 22.5101 0.515329 22.4967 0.506238 22.4501C0.499789 22.4171 0.484741 22.3901 0.472764 22.3901C0.460848 22.3901 0.451082 22.3523 0.451082 22.3061C0.451082 22.2461 0.440149 22.2221 0.412755 22.2221C0.391687 22.2221 0.380816 22.2121 0.388616 22.1998C0.396355 22.1875 0.391319 22.1705 0.377376 22.1621C0.363433 22.1537 0.358397 22.1368 0.366136 22.1245C0.373936 22.1122 0.370681 22.1021 0.359011 22.1021C0.338865 22.1021 0.337575 22.0132 0.356493 21.9342C0.362389 21.9096 0.349552 21.9008 0.315954 21.9064C0.288929 21.911 0.274741 21.9069 0.284384 21.8973C0.294027 21.8877 0.291386 21.8606 0.278426 21.837C0.262456 21.8078 0.263869 21.7911 0.282848 21.785C0.302503 21.7785 0.303363 21.7621 0.285735 21.729C0.271977 21.7032 0.269029 21.6606 0.279163 21.6342C0.289666 21.6068 0.285735 21.5713 0.26995 21.5516C0.24876 21.5251 0.249435 21.5212 0.27296 21.535C0.289851 21.5449 0.30367 21.5416 0.30367 21.5276C0.30367 21.5137 0.293413 21.5022 0.280821 21.5022C0.26823 21.5022 0.253489 21.4779 0.248084 21.4482C0.242679 21.4185 0.236598 21.5098 0.234571 21.6511ZM1.71784 21.4719C1.71956 21.5084 1.72361 21.5436 1.72687 21.5502C1.74296 21.5831 1.74241 21.6665 1.72613 21.6567C1.68166 21.6298 1.68344 21.6942 1.7281 21.7247C1.75524 21.7433 1.77017 21.7656 1.76126 21.7743C1.75236 21.783 1.75795 21.7902 1.77367 21.7902C1.78946 21.7902 1.80106 21.7983 1.79947 21.8082C1.78202 21.9158 1.85278 22.0542 1.9252 22.0542C1.96119 22.0542 1.95517 22.0149 1.91291 21.9736C1.89264 21.9538 1.87606 21.9259 1.87606 21.9115C1.87606 21.8972 1.86629 21.8668 1.85438 21.8439C1.79425 21.7284 1.77815 21.6714 1.77213 21.5521C1.76845 21.4805 1.75408 21.4183 1.74007 21.4138C1.72613 21.4093 1.71612 21.4355 1.71784 21.4719ZM18.9267 21.5462C18.9267 21.5695 18.9397 21.6013 18.9557 21.6169C18.9779 21.6386 18.9768 21.6607 18.9507 21.7117C18.932 21.7482 18.9117 21.788 18.9056 21.7999C18.8995 21.8118 18.9061 21.8146 18.9203 21.806C18.9534 21.786 18.979 21.8501 18.9585 21.9021C18.9482 21.9285 18.9524 21.9363 18.971 21.925C18.988 21.9148 18.9985 21.8422 18.9975 21.7411C18.9964 21.6212 18.9879 21.5788 18.9674 21.5908C18.9496 21.6012 18.9507 21.5933 18.9703 21.5696C18.9961 21.5385 18.995 21.5293 18.9641 21.5177C18.9393 21.5084 18.9267 21.518 18.9267 21.5462ZM18.9021 21.9687C18.9021 21.9893 18.8883 22.0063 18.8714 22.0065C18.8516 22.0068 18.8497 22.0132 18.866 22.0245C18.9036 22.0506 18.8965 22.1336 18.8536 22.1696C18.8241 22.1945 18.8229 22.2039 18.8481 22.2141C18.8721 22.2238 18.869 22.2349 18.8358 22.2586C18.7827 22.2965 18.7702 22.44 18.8217 22.4207C18.8428 22.4128 18.8509 22.3835 18.8441 22.3409C18.8359 22.2902 18.8418 22.2767 18.8676 22.2863C18.8926 22.2957 18.9021 22.279 18.9021 22.2261C18.9021 22.1859 18.9132 22.1463 18.9267 22.1381C18.9402 22.13 18.9512 22.0868 18.9512 22.0422C18.9512 21.9975 18.9402 21.9543 18.9267 21.9462C18.9132 21.938 18.9021 21.9481 18.9021 21.9687ZM1.9693 22.1733C2.00363 22.2318 2.01377 22.2373 2.02574 22.2038C2.04073 22.1621 1.99761 22.1021 1.95265 22.1021C1.93883 22.1021 1.94633 22.1342 1.9693 22.1733ZM2.07261 22.2413C2.07261 22.2984 2.1594 22.3797 2.18206 22.3439C2.19091 22.3299 2.16984 22.291 2.13538 22.2572C2.07955 22.2028 2.07261 22.201 2.07261 22.2413ZM2.23335 22.3644C2.22561 22.3767 2.23065 22.3937 2.24459 22.4021C2.25853 22.4105 2.26252 22.4292 2.25349 22.4435C2.24404 22.4585 2.24834 22.4627 2.26369 22.4534C2.27831 22.4446 2.29741 22.4485 2.30601 22.4621C2.31461 22.4757 2.33199 22.4807 2.34458 22.4731C2.35711 22.4655 2.36743 22.4714 2.36743 22.4861C2.36743 22.5009 2.37849 22.5063 2.392 22.4981C2.40551 22.49 2.41657 22.493 2.41657 22.5048C2.41657 22.5167 2.45526 22.5277 2.50256 22.5295C2.54985 22.5312 2.58855 22.5222 2.58855 22.5094C2.58855 22.4966 2.56711 22.4861 2.54089 22.4861C2.51466 22.4861 2.48634 22.4753 2.47799 22.4621C2.46964 22.4489 2.44341 22.4381 2.41976 22.4381C2.39605 22.4381 2.35294 22.4165 2.32395 22.3901C2.26443 22.3359 2.25337 22.3328 2.23335 22.3644ZM16.9366 22.3633C16.9366 22.375 16.9134 22.3905 16.885 22.3977C16.8566 22.4049 16.8401 22.4214 16.8482 22.4343C16.8566 22.4475 16.8432 22.4526 16.8172 22.4459C16.7886 22.4387 16.7653 22.4498 16.7552 22.4756C16.735 22.5268 16.76 22.5562 16.7871 22.5134C16.798 22.4961 16.814 22.4829 16.8227 22.4841C16.8868 22.4925 16.9156 22.4819 16.9046 22.4538C16.8956 22.4307 16.9087 22.4247 16.9512 22.4327C17.0144 22.4445 17.0187 22.4393 16.9954 22.3801C16.9796 22.3398 16.9366 22.3275 16.9366 22.3633ZM16.6308 22.5274C16.6181 22.5598 16.6102 22.5619 16.5946 22.5371C16.579 22.5126 16.5448 22.5105 16.4423 22.5279C16.3175 22.549 16.3142 22.5514 16.3825 22.57C16.4315 22.5833 16.458 22.5807 16.4644 22.5619C16.4696 22.5466 16.4852 22.5341 16.499 22.5341C16.5129 22.5341 16.5178 22.5503 16.51 22.5701C16.4931 22.6134 16.4967 22.6138 16.5849 22.5782C16.6229 22.5629 16.6613 22.5517 16.6702 22.5535C16.679 22.5552 16.6925 22.5407 16.7001 22.5213C16.7081 22.501 16.6998 22.4861 16.6805 22.4861C16.6621 22.4861 16.6398 22.5047 16.6308 22.5274ZM2.64358 22.5364C2.65046 22.555 2.66969 22.567 2.68633 22.5633C2.70298 22.5595 2.7292 22.5666 2.74468 22.579C2.76268 22.5935 2.79947 22.5901 2.84652 22.5698C2.90419 22.5449 2.90954 22.5375 2.87109 22.5358C2.84406 22.5346 2.77902 22.5267 2.7265 22.5182C2.65065 22.506 2.63363 22.5097 2.64358 22.5364ZM0.485846 22.5614C0.475221 22.5782 0.479643 22.5954 0.495858 22.6007C0.511766 22.6059 0.524788 22.6308 0.524788 22.6561C0.524788 22.6814 0.533448 22.7021 0.544074 22.7021C0.554638 22.7021 0.56293 22.6679 0.5625 22.6261C0.561579 22.5467 0.518277 22.5102 0.485846 22.5614ZM18.6633 22.5534C18.6469 22.5636 18.6306 22.6079 18.6272 22.6518C18.6237 22.6957 18.6069 22.737 18.5897 22.7434C18.5505 22.7581 18.5734 22.7981 18.621 22.7981C18.6405 22.7981 18.6564 22.7765 18.6564 22.7501C18.6564 22.7237 18.6688 22.7021 18.6839 22.7021C18.6992 22.7021 18.7056 22.6809 18.6984 22.6541C18.6901 22.6229 18.6977 22.6061 18.7201 22.6061C18.7391 22.6061 18.7547 22.5899 18.7547 22.5701C18.7547 22.5313 18.7116 22.5234 18.6633 22.5534ZM0.587622 22.7315C0.567168 22.7773 0.618455 22.8436 0.663047 22.829C0.680184 22.8235 0.685896 22.8429 0.678403 22.8811C0.665566 22.9466 0.706718 22.9659 0.730427 22.9055C0.73835 22.8854 0.723855 22.8485 0.698242 22.8235C0.672691 22.7986 0.659116 22.7701 0.668084 22.7602C0.677113 22.7504 0.671524 22.7497 0.655615 22.7585C0.639093 22.7678 0.622386 22.7566 0.616428 22.7324C0.606724 22.6926 0.605004 22.6926 0.587622 22.7315ZM18.4857 22.8581C18.4998 22.9327 18.4836 22.9713 18.4498 22.9439C18.4293 22.9273 18.4092 22.9249 18.4009 22.9382C18.3758 22.9778 18.4889 22.9891 18.528 22.9509C18.5611 22.9186 18.5607 22.9103 18.5232 22.8743C18.5001 22.8522 18.4832 22.8449 18.4857 22.8581ZM0.751064 22.955C0.732638 22.9754 0.730058 22.9901 0.744922 22.9901C0.758988 22.9901 0.770474 23.0036 0.770474 23.0201C0.770535 23.067 0.887666 23.1883 0.916288 23.171C0.931091 23.1621 0.936312 23.1697 0.928695 23.1891C0.914445 23.2254 1.19361 23.494 1.24551 23.494C1.26203 23.494 1.29151 23.5156 1.31098 23.542C1.33045 23.5684 1.35637 23.59 1.36853 23.59C1.38076 23.59 1.37732 23.5743 1.36104 23.5551C1.3447 23.5358 1.33844 23.5088 1.34716 23.4951C1.37689 23.4481 1.33555 23.4204 1.2788 23.4492C1.24919 23.4642 1.23292 23.4682 1.24256 23.4581C1.27499 23.4241 1.21308 23.3439 1.17702 23.3731C1.14146 23.4019 1.11443 23.3602 1.11443 23.2765C1.11443 23.2468 1.09097 23.2252 1.04687 23.2145C1.00971 23.2055 0.965855 23.181 0.949394 23.1601C0.932933 23.1392 0.919113 23.1302 0.918683 23.1401C0.918254 23.15 0.897247 23.1379 0.871942 23.1132C0.846698 23.0885 0.82735 23.0381 0.828947 23.0012C0.832325 22.9244 0.797437 22.9038 0.751064 22.955ZM18.3671 23.0732C18.3722 23.1102 18.3605 23.1216 18.3186 23.1201C18.288 23.1191 18.2633 23.1325 18.2633 23.1501C18.2633 23.1677 18.2807 23.182 18.3019 23.182C18.353 23.182 18.418 23.117 18.3982 23.0856C18.3895 23.072 18.3957 23.0639 18.412 23.0675C18.4282 23.0711 18.4457 23.0629 18.451 23.0492C18.4562 23.0355 18.4379 23.0243 18.4104 23.0243C18.3741 23.0243 18.3621 23.0379 18.3671 23.0732ZM18.1907 23.2167C18.1768 23.2331 18.1733 23.2542 18.1829 23.2635C18.1926 23.2729 18.1814 23.2735 18.1582 23.2647C18.1296 23.254 18.1159 23.2608 18.1159 23.2855C18.1159 23.3056 18.1297 23.3275 18.1466 23.3341C18.1635 23.3408 18.1524 23.3471 18.122 23.3481C18.0916 23.3492 18.0668 23.361 18.0668 23.3744C18.0668 23.3878 18.0281 23.4168 17.9808 23.4389C17.9335 23.4609 17.8948 23.4869 17.8948 23.4966C17.8948 23.5063 17.856 23.5268 17.8086 23.5421C17.7612 23.5574 17.7106 23.5914 17.6961 23.6178C17.68 23.6472 17.6552 23.6602 17.6318 23.6514C17.5882 23.6351 17.5201 23.6808 17.5403 23.7127C17.5587 23.7419 17.6491 23.7397 17.6491 23.71C17.6491 23.6968 17.6686 23.686 17.6924 23.686C17.7162 23.686 17.7563 23.6592 17.7815 23.6265C17.8066 23.5937 17.8375 23.5731 17.8501 23.5807C17.8626 23.5882 17.8916 23.5745 17.9145 23.5501C17.9375 23.5256 17.9856 23.491 18.0214 23.473C18.1491 23.4091 18.3234 23.2144 18.2661 23.1998C18.2386 23.1928 18.2046 23.2004 18.1907 23.2167ZM1.47682 23.5842C1.40778 23.5992 1.46386 23.686 1.5426 23.686C1.56385 23.686 1.58124 23.6968 1.58124 23.71C1.58124 23.7232 1.60335 23.734 1.63037 23.734C1.6574 23.734 1.67951 23.7448 1.67951 23.758C1.67951 23.7712 1.70162 23.782 1.72865 23.782C1.75567 23.782 1.77779 23.7928 1.77779 23.806C1.77779 23.8192 1.7999 23.83 1.82692 23.83C1.85395 23.83 1.87606 23.8408 1.87606 23.854C1.87606 23.8672 1.89357 23.878 1.91494 23.878C1.93638 23.878 1.94878 23.8645 1.94258 23.848C1.93644 23.8315 1.91752 23.8211 1.90069 23.8249C1.88116 23.8294 1.87575 23.8173 1.88589 23.7916C1.89928 23.7575 1.89584 23.756 1.8639 23.7819C1.83276 23.8072 1.81808 23.8056 1.78153 23.7733C1.75709 23.7517 1.72595 23.734 1.71237 23.734C1.6988 23.734 1.64991 23.6982 1.60378 23.6544C1.55532 23.6085 1.50163 23.5788 1.47682 23.5842ZM17.4146 23.7322C17.4221 23.7441 17.4144 23.7589 17.3974 23.765C17.3728 23.7737 17.373 23.7826 17.3983 23.8088C17.4251 23.8365 17.4336 23.836 17.4532 23.8058C17.4855 23.756 17.4829 23.7413 17.439 23.7248C17.418 23.717 17.407 23.7203 17.4146 23.7322ZM17.3141 23.7939C17.3063 23.8135 17.2901 23.8237 17.278 23.8164C17.2659 23.8091 17.256 23.8146 17.256 23.8285C17.256 23.8425 17.2443 23.854 17.23 23.854C17.2156 23.854 17.2108 23.8432 17.2191 23.83C17.2275 23.8168 17.2171 23.806 17.1961 23.806C17.1503 23.806 17.1467 23.8336 17.1872 23.8732C17.2234 23.9086 17.1954 23.9106 17.1316 23.8771C17.098 23.8596 17.084 23.86 17.084 23.8786C17.084 23.893 17.073 23.8981 17.0595 23.89C17.0459 23.8818 17.0349 23.8852 17.0349 23.8975C17.0349 23.9099 17.0072 23.9218 16.9735 23.9241C16.8372 23.9331 16.8178 23.937 16.828 23.9531C16.8338 23.9623 16.8248 23.9752 16.8077 23.9818C16.7908 23.9884 16.8377 23.9879 16.912 23.9808C16.9864 23.9736 17.0577 23.9584 17.0705 23.9469C17.0833 23.9354 17.1186 23.926 17.1489 23.926C17.1792 23.926 17.2108 23.9152 17.2191 23.902C17.2275 23.8888 17.2612 23.878 17.294 23.878C17.3427 23.878 17.3528 23.8669 17.3486 23.818C17.3428 23.7491 17.3341 23.743 17.3141 23.7939ZM2.07261 23.8806C2.07261 23.8951 2.05547 23.9007 2.03447 23.8928C2.0126 23.8846 2.00277 23.8887 2.01137 23.9023C2.0196 23.9153 2.05271 23.926 2.08489 23.926C2.11708 23.926 2.15025 23.9368 2.1586 23.95C2.19576 24.0087 2.26922 23.9763 2.24011 23.914C2.21118 23.8519 2.07261 23.8243 2.07261 23.8806Z" fill="#241C44"/>
<path fill-rule="evenodd" clip-rule="evenodd" d="M14.0457 5.60975C14.5298 5.61341 15.3148 5.61341 15.79 5.60975C16.2654 5.60609 15.8693 5.60309 14.9099 5.60315C13.9505 5.60315 13.5616 5.60609 14.0457 5.60975Z" fill="#281C4C"/>
<path fill-rule="evenodd" clip-rule="evenodd" d="M14.0457 5.60975C14.5298 5.61341 15.3148 5.61341 15.79 5.60975C16.2654 5.60609 15.8693 5.60309 14.9099 5.60315C13.9505 5.60315 13.5616 5.60609 14.0457 5.60975Z" fill="#281C4C"/>
<path fill-rule="evenodd" clip-rule="evenodd" d="M14.0457 5.60975C14.5298 5.61341 15.3148 5.61341 15.79 5.60975C16.2654 5.60609 15.8693 5.60309 14.9099 5.60315C13.9505 5.60315 13.5616 5.60609 14.0457 5.60975Z" fill="#281C4C"/>
</svg>
